<?xml version="1.0" encoding="UTF-8"?>
<svg id="Layer_2" data-name="Layer 2" xmlns="http://www.w3.org/2000/svg" viewBox="0 0 411.11 98.76">
  <defs>
    <style>
      .cls-1 {
        fill: #171c1a;
      }
    </style>
  </defs>
  <g id="Layer_1-2" data-name="Layer 1">
    <g>
      <path class="cls-1" d="m0,97.15V3.35h61.51v15.14H18.76v24.25h34.04v14.74H18.76v39.66H0Z"/>
      <path class="cls-1" d="m84.15,20.9c-3.4,0-6.16-1-8.31-3.01-2.14-2.01-3.22-4.49-3.22-7.44s1.07-5.54,3.22-7.5c2.14-1.96,4.91-2.95,8.31-2.95s6.16.98,8.31,2.95c2.14,1.97,3.22,4.47,3.22,7.5s-1.07,5.43-3.22,7.44c-2.14,2.01-4.91,3.01-8.31,3.01Zm-9.51,76.25V29.61h18.76v67.54h-18.76Z"/>
      <path class="cls-1" d="m111.62,97.15V29.61h16.48l1.47,8.84c2.14-3.22,5-5.76,8.58-7.64,3.57-1.88,7.59-2.81,12.06-2.81,3.39,0,6.45.42,9.18,1.27,2.72.85,5.11,2.12,7.17,3.82,2.05,1.7,3.75,3.8,5.09,6.3,2.5-3.48,5.76-6.25,9.78-8.31,4.02-2.05,8.44-3.08,13.27-3.08,5.81,0,10.72,1.18,14.74,3.55,4.02,2.37,7.01,5.81,8.98,10.32,1.96,4.51,2.95,10.03,2.95,16.55v38.73h-18.63v-36.98c0-5.27-1.03-9.31-3.08-12.13-2.06-2.81-5.18-4.22-9.38-4.22-2.86,0-5.38.69-7.57,2.08-2.19,1.39-3.89,3.37-5.09,5.96-1.21,2.59-1.81,5.72-1.81,9.38v35.91h-18.62v-36.98c0-5.27-1.05-9.31-3.15-12.13-2.1-2.81-5.34-4.22-9.71-4.22-2.68,0-5.07.69-7.17,2.08-2.1,1.39-3.75,3.37-4.96,5.96-1.21,2.59-1.81,5.72-1.81,9.38v35.91h-18.76Z"/>
      <path class="cls-1" d="m271.08,98.76c-6.88,0-12.93-1.47-18.16-4.42-5.23-2.95-9.29-7.03-12.19-12.26-2.9-5.23-4.36-11.23-4.36-18.02s1.43-13.27,4.29-18.63c2.86-5.36,6.9-9.6,12.13-12.73,5.23-3.13,11.32-4.69,18.29-4.69s12.55,1.47,17.55,4.42c5,2.95,8.91,6.92,11.73,11.93,2.81,5,4.22,10.72,4.22,17.15,0,.89-.02,1.9-.07,3.01-.05,1.12-.11,2.26-.2,3.42h-54.67v-11.26h36.05c-.27-4.02-1.77-7.28-4.49-9.78-2.73-2.5-6.1-3.75-10.12-3.75-3.04,0-5.79.72-8.24,2.14-2.46,1.43-4.4,3.53-5.83,6.3-1.43,2.77-2.14,6.3-2.14,10.59v3.89c0,3.48.65,6.52,1.94,9.11,1.29,2.59,3.15,4.62,5.56,6.1s5.23,2.21,8.44,2.21,5.96-.67,7.97-2.01,3.55-3.08,4.62-5.23h19.16c-1.16,4.29-3.24,8.13-6.23,11.52-2.99,3.4-6.63,6.08-10.92,8.04s-9.07,2.95-14.34,2.95Z"/>
      <path class="cls-1" d="m347.19,98.76c-6.34,0-11.77-1.01-16.28-3.02-4.51-2.01-8.06-4.73-10.65-8.17-2.59-3.44-4.07-7.35-4.42-11.72h18.63c.36,1.52,1.07,2.95,2.14,4.29,1.07,1.34,2.46,2.41,4.15,3.22,1.7.8,3.75,1.21,6.16,1.21s4.24-.33,5.76-1c1.52-.67,2.63-1.54,3.35-2.61.71-1.07,1.07-2.23,1.07-3.48,0-1.79-.54-3.15-1.61-4.09-1.07-.94-2.61-1.76-4.62-2.48-2.01-.71-4.49-1.29-7.44-1.74-3.13-.71-6.25-1.52-9.38-2.41-3.13-.89-5.92-2.08-8.38-3.55-2.46-1.47-4.4-3.33-5.83-5.56-1.43-2.23-2.14-5-2.14-8.31,0-3.93,1.07-7.53,3.22-10.79,2.14-3.26,5.34-5.83,9.58-7.71,4.24-1.88,9.22-2.81,14.94-2.81,8.31,0,14.83,1.83,19.56,5.49,4.73,3.66,7.55,8.71,8.44,15.14h-17.55c-.54-2.05-1.7-3.62-3.48-4.69-1.79-1.07-4.15-1.61-7.1-1.61s-5.38.56-7.04,1.67c-1.65,1.12-2.48,2.53-2.48,4.22,0,1.25.54,2.32,1.61,3.22,1.07.89,2.61,1.7,4.62,2.41,2.01.72,4.44,1.39,7.3,2.01,5.36,1.07,10,2.3,13.94,3.69,3.93,1.39,7.01,3.35,9.25,5.9,2.23,2.55,3.35,6.23,3.35,11.06,0,4.38-1.16,8.24-3.48,11.59-2.32,3.35-5.63,5.96-9.92,7.84s-9.38,2.81-15.28,2.81Z"/>
      <path class="cls-1" d="m399.72,97.82c-3.48,0-6.3-1.05-8.44-3.15-2.14-2.1-3.22-4.62-3.22-7.57s1.07-5.58,3.22-7.64c2.14-2.05,4.96-3.08,8.44-3.08,3.3,0,6.03,1.03,8.17,3.08,2.14,2.06,3.22,4.6,3.22,7.64s-1.07,5.47-3.22,7.57c-2.14,2.1-4.87,3.15-8.17,3.15Z"/>
    </g>
  </g>
</svg>