<svg width="132" height="194" viewBox="0 0 132 194" fill="none" xmlns="http://www.w3.org/2000/svg">
<circle cx="2.5" cy="2.5" r="2.5" fill="#B7B7B7"/>
<circle cx="2.5" cy="30.5" r="2.5" fill="#B7B7B7"/>
<circle cx="2.5" cy="58.5" r="2.5" fill="#B7B7B7"/>
<circle cx="2.5" cy="86.5" r="2.5" fill="#B7B7B7"/>
<circle cx="2.5" cy="114.5" r="2.5" fill="#B7B7B7"/>
<circle cx="2.5" cy="142.5" r="2.5" fill="#B7B7B7"/>
<circle cx="2.5" cy="170.5" r="2.5" fill="#B7B7B7"/>
<circle cx="2.5" cy="16.5" r="2.5" fill="#B7B7B7"/>
<circle cx="2.5" cy="44.5" r="2.5" fill="#B7B7B7"/>
<circle cx="2.5" cy="72.5" r="2.5" fill="#B7B7B7"/>
<circle cx="2.5" cy="100.5" r="2.5" fill="#B7B7B7"/>
<circle cx="2.5" cy="128.5" r="2.5" fill="#B7B7B7"/>
<circle cx="2.5" cy="156.5" r="2.5" fill="#B7B7B7"/>
<circle cx="2.5" cy="184.5" r="2.5" fill="#B7B7B7"/>
<circle cx="44.5" cy="2.5" r="2.5" fill="#B7B7B7"/>
<circle cx="44.5" cy="30.5" r="2.5" fill="#B7B7B7"/>
<circle cx="44.5" cy="58.5" r="2.5" fill="#B7B7B7"/>
<circle cx="44.5" cy="86.5" r="2.5" fill="#B7B7B7"/>
<circle cx="44.5" cy="114.5" r="2.5" fill="#B7B7B7"/>
<circle cx="44.5" cy="142.5" r="2.5" fill="#B7B7B7"/>
<circle cx="44.5" cy="170.5" r="2.5" fill="#B7B7B7"/>
<circle cx="44.5" cy="16.5" r="2.5" fill="#B7B7B7"/>
<circle cx="44.5" cy="44.5" r="2.5" fill="#B7B7B7"/>
<circle cx="44.5" cy="72.5" r="2.5" fill="#B7B7B7"/>
<circle cx="44.5" cy="100.5" r="2.5" fill="#B7B7B7"/>
<circle cx="44.5" cy="128.5" r="2.5" fill="#B7B7B7"/>
<circle cx="44.5" cy="156.5" r="2.5" fill="#B7B7B7"/>
<circle cx="44.5" cy="184.5" r="2.5" fill="#B7B7B7"/>
<circle cx="87.5" cy="2.5" r="2.5" fill="#B7B7B7"/>
<circle cx="87.5" cy="30.5" r="2.5" fill="#B7B7B7"/>
<circle cx="87.5" cy="58.5" r="2.5" fill="#B7B7B7"/>
<circle cx="87.5" cy="86.5" r="2.5" fill="#B7B7B7"/>
<circle cx="87.5" cy="114.5" r="2.5" fill="#B7B7B7"/>
<circle cx="87.5" cy="142.5" r="2.5" fill="#B7B7B7"/>
<circle cx="87.5" cy="170.5" r="2.5" fill="#B7B7B7"/>
<circle cx="87.5" cy="16.5" r="2.5" fill="#B7B7B7"/>
<circle cx="87.5" cy="44.5" r="2.5" fill="#B7B7B7"/>
<circle cx="87.5" cy="72.5" r="2.5" fill="#B7B7B7"/>
<circle cx="87.5" cy="100.5" r="2.5" fill="#B7B7B7"/>
<circle cx="87.5" cy="128.5" r="2.5" fill="#B7B7B7"/>
<circle cx="87.5" cy="156.5" r="2.5" fill="#B7B7B7"/>
<circle cx="87.5" cy="184.5" r="2.5" fill="#B7B7B7"/>
<circle cx="16.5" cy="2.5" r="2.5" fill="#B7B7B7"/>
<circle cx="16.5" cy="30.5" r="2.5" fill="#B7B7B7"/>
<circle cx="16.5" cy="58.5" r="2.5" fill="#B7B7B7"/>
<circle cx="16.5" cy="86.5" r="2.5" fill="#B7B7B7"/>
<circle cx="16.5" cy="114.5" r="2.5" fill="#B7B7B7"/>
<circle cx="16.5" cy="142.5" r="2.5" fill="#B7B7B7"/>
<circle cx="16.5" cy="170.5" r="2.5" fill="#B7B7B7"/>
<circle cx="16.5" cy="16.5" r="2.5" fill="#B7B7B7"/>
<circle cx="16.5" cy="44.5" r="2.5" fill="#B7B7B7"/>
<circle cx="16.5" cy="72.5" r="2.5" fill="#B7B7B7"/>
<circle cx="16.5" cy="100.5" r="2.5" fill="#B7B7B7"/>
<circle cx="16.5" cy="128.5" r="2.5" fill="#B7B7B7"/>
<circle cx="16.5" cy="156.5" r="2.5" fill="#B7B7B7"/>
<circle cx="16.5" cy="184.5" r="2.5" fill="#B7B7B7"/>
<circle cx="59.5" cy="2.5" r="2.5" fill="#B7B7B7"/>
<circle cx="59.5" cy="30.5" r="2.5" fill="#B7B7B7"/>
<circle cx="59.5" cy="58.5" r="2.5" fill="#B7B7B7"/>
<circle cx="59.5" cy="86.5" r="2.5" fill="#B7B7B7"/>
<circle cx="59.5" cy="114.5" r="2.5" fill="#B7B7B7"/>
<circle cx="59.5" cy="142.5" r="2.5" fill="#B7B7B7"/>
<circle cx="59.5" cy="170.5" r="2.5" fill="#B7B7B7"/>
<circle cx="59.5" cy="16.5" r="2.5" fill="#B7B7B7"/>
<circle cx="59.5" cy="44.5" r="2.5" fill="#B7B7B7"/>
<circle cx="59.5" cy="72.5" r="2.5" fill="#B7B7B7"/>
<circle cx="59.5" cy="100.5" r="2.5" fill="#B7B7B7"/>
<circle cx="59.5" cy="128.5" r="2.5" fill="#B7B7B7"/>
<circle cx="59.5" cy="156.5" r="2.5" fill="#B7B7B7"/>
<circle cx="59.5" cy="184.5" r="2.5" fill="#B7B7B7"/>
<circle cx="130.5" cy="16.5" r="2.5" fill="#B7B7B7"/>
<circle cx="130.5" cy="44.5" r="2.5" fill="#B7B7B7"/>
<circle cx="130.5" cy="72.5" r="2.5" fill="#B7B7B7"/>
<circle cx="130.5" cy="100.5" r="2.5" fill="#B7B7B7"/>
<circle cx="130.5" cy="128.5" r="2.5" fill="#B7B7B7"/>
<circle cx="130.5" cy="156.5" r="2.5" fill="#B7B7B7"/>
<circle cx="130.5" cy="184.5" r="2.5" fill="#B7B7B7"/>
<circle cx="102.5" cy="2.5" r="2.5" fill="#B7B7B7"/>
<circle cx="102.5" cy="30.5" r="2.5" fill="#B7B7B7"/>
<circle cx="102.5" cy="58.5" r="2.5" fill="#B7B7B7"/>
<circle cx="102.5" cy="86.5" r="2.5" fill="#B7B7B7"/>
<circle cx="102.5" cy="114.5" r="2.5" fill="#B7B7B7"/>
<circle cx="102.5" cy="142.5" r="2.5" fill="#B7B7B7"/>
<circle cx="102.5" cy="170.5" r="2.5" fill="#B7B7B7"/>
<circle cx="102.5" cy="16.5" r="2.5" fill="#B7B7B7"/>
<circle cx="102.5" cy="44.5" r="2.5" fill="#B7B7B7"/>
<circle cx="102.5" cy="72.5" r="2.5" fill="#B7B7B7"/>
<circle cx="102.5" cy="100.5" r="2.5" fill="#B7B7B7"/>
<circle cx="102.5" cy="128.5" r="2.5" fill="#B7B7B7"/>
<circle cx="102.5" cy="156.5" r="2.5" fill="#B7B7B7"/>
<circle cx="102.5" cy="184.5" r="2.5" fill="#B7B7B7"/>
<circle cx="30.5" cy="2.5" r="2.5" fill="#B7B7B7"/>
<circle cx="30.5" cy="30.5" r="2.5" fill="#B7B7B7"/>
<circle cx="30.5" cy="58.5" r="2.5" fill="#B7B7B7"/>
<circle cx="30.5" cy="86.5" r="2.5" fill="#B7B7B7"/>
<circle cx="30.5" cy="114.5" r="2.5" fill="#B7B7B7"/>
<circle cx="30.5" cy="142.5" r="2.5" fill="#B7B7B7"/>
<circle cx="30.5" cy="170.5" r="2.5" fill="#B7B7B7"/>
<circle cx="30.5" cy="16.5" r="2.5" fill="#B7B7B7"/>
<circle cx="30.5" cy="44.5" r="2.5" fill="#B7B7B7"/>
<circle cx="30.5" cy="72.5" r="2.5" fill="#B7B7B7"/>
<circle cx="30.5" cy="100.5" r="2.5" fill="#B7B7B7"/>
<circle cx="30.5" cy="128.5" r="2.5" fill="#B7B7B7"/>
<circle cx="30.5" cy="156.5" r="2.5" fill="#B7B7B7"/>
<circle cx="30.5" cy="184.5" r="2.5" fill="#B7B7B7"/>
<circle cx="73.5" cy="2.5" r="2.5" fill="#B7B7B7"/>
<circle cx="73.5" cy="30.5" r="2.5" fill="#B7B7B7"/>
<circle cx="73.5" cy="58.5" r="2.5" fill="#B7B7B7"/>
<circle cx="73.5" cy="86.5" r="2.5" fill="#B7B7B7"/>
<circle cx="73.5" cy="114.5" r="2.5" fill="#B7B7B7"/>
<circle cx="73.5" cy="142.5" r="2.5" fill="#B7B7B7"/>
<circle cx="73.5" cy="170.5" r="2.5" fill="#B7B7B7"/>
<circle cx="73.5" cy="16.5" r="2.5" fill="#B7B7B7"/>
<circle cx="73.5" cy="44.5" r="2.5" fill="#B7B7B7"/>
<circle cx="73.5" cy="72.5" r="2.5" fill="#B7B7B7"/>
<circle cx="73.5" cy="100.5" r="2.5" fill="#B7B7B7"/>
<circle cx="73.5" cy="128.5" r="2.5" fill="#B7B7B7"/>
<circle cx="73.5" cy="156.5" r="2.5" fill="#B7B7B7"/>
<circle cx="73.5" cy="184.5" r="2.5" fill="#B7B7B7"/>
<circle cx="116.5" cy="2.5" r="2.5" fill="#B7B7B7"/>
<circle cx="116.5" cy="30.5" r="2.5" fill="#B7B7B7"/>
<circle cx="116.5" cy="58.5" r="2.5" fill="#B7B7B7"/>
<circle cx="116.5" cy="86.5" r="2.5" fill="#B7B7B7"/>
<circle cx="116.5" cy="114.5" r="2.5" fill="#B7B7B7"/>
<circle cx="116.5" cy="142.5" r="2.5" fill="#B7B7B7"/>
<circle cx="116.5" cy="170.5" r="2.5" fill="#B7B7B7"/>
<circle cx="116.5" cy="16.5" r="2.5" fill="#B7B7B7"/>
<circle cx="116.5" cy="44.5" r="2.5" fill="#B7B7B7"/>
<circle cx="116.5" cy="72.5" r="2.5" fill="#B7B7B7"/>
<circle cx="116.5" cy="100.5" r="2.5" fill="#B7B7B7"/>
<circle cx="116.5" cy="128.5" r="2.5" fill="#B7B7B7"/>
<circle cx="116.5" cy="156.5" r="2.5" fill="#B7B7B7"/>
<circle cx="116.5" cy="184.5" r="2.5" fill="#B7B7B7"/>
<circle cx="130.5" cy="2.5" r="2.5" fill="#B7B7B7"/>
<circle cx="130.5" cy="30.5" r="2.5" fill="#B7B7B7"/>
<circle cx="130.5" cy="58.5" r="2.5" fill="#B7B7B7"/>
<circle cx="130.5" cy="86.5" r="2.5" fill="#B7B7B7"/>
<circle cx="130.5" cy="114.5" r="2.5" fill="#B7B7B7"/>
<circle cx="130.5" cy="142.5" r="2.5" fill="#B7B7B7"/>
<circle cx="130.5" cy="170.5" r="2.5" fill="#B7B7B7"/>
</svg>
