<svg width="93" height="117" viewBox="0 0 93 117" fill="none" xmlns="http://www.w3.org/2000/svg">
<g clip-path="url(#clip0_37_344)">
<circle cx="9.5" cy="2.5" r="2.5" fill="#B7B7B7"/>
<circle cx="9.5" cy="30.5" r="2.5" fill="#B7B7B7"/>
<circle cx="9.5" cy="58.5" r="2.5" fill="#B7B7B7"/>
<circle cx="9.5" cy="86.5" r="2.5" fill="#B7B7B7"/>
<circle cx="9.5" cy="114.5" r="2.5" fill="#B7B7B7"/>
<circle cx="9.5" cy="16.5" r="2.5" fill="#B7B7B7"/>
<circle cx="9.5" cy="44.5" r="2.5" fill="#B7B7B7"/>
<circle cx="9.5" cy="72.5" r="2.5" fill="#B7B7B7"/>
<circle cx="9.5" cy="100.5" r="2.5" fill="#B7B7B7"/>
<circle cx="52.5" cy="2.5" r="2.5" fill="#B7B7B7"/>
<circle cx="52.5" cy="30.5" r="2.5" fill="#B7B7B7"/>
<circle cx="52.5" cy="58.5" r="2.5" fill="#B7B7B7"/>
<circle cx="52.5" cy="86.5" r="2.5" fill="#B7B7B7"/>
<circle cx="52.5" cy="114.5" r="2.5" fill="#B7B7B7"/>
<circle cx="52.5" cy="16.5" r="2.5" fill="#B7B7B7"/>
<circle cx="52.5" cy="44.5" r="2.5" fill="#B7B7B7"/>
<circle cx="52.5" cy="72.5" r="2.5" fill="#B7B7B7"/>
<circle cx="52.5" cy="100.5" r="2.5" fill="#B7B7B7"/>
<circle cx="24.5" cy="2.5" r="2.5" fill="#B7B7B7"/>
<circle cx="24.5" cy="30.5" r="2.5" fill="#B7B7B7"/>
<circle cx="24.5" cy="58.5" r="2.5" fill="#B7B7B7"/>
<circle cx="24.5" cy="86.5" r="2.5" fill="#B7B7B7"/>
<circle cx="24.5" cy="114.5" r="2.5" fill="#B7B7B7"/>
<circle cx="24.5" cy="16.5" r="2.5" fill="#B7B7B7"/>
<circle cx="24.5" cy="44.5" r="2.5" fill="#B7B7B7"/>
<circle cx="24.5" cy="72.5" r="2.5" fill="#B7B7B7"/>
<circle cx="24.5" cy="100.5" r="2.5" fill="#B7B7B7"/>
<circle cx="67.5" cy="2.5" r="2.5" fill="#B7B7B7"/>
<circle cx="67.5" cy="30.5" r="2.5" fill="#B7B7B7"/>
<circle cx="67.5" cy="58.5" r="2.5" fill="#B7B7B7"/>
<circle cx="67.5" cy="86.5" r="2.5" fill="#B7B7B7"/>
<circle cx="67.5" cy="114.5" r="2.5" fill="#B7B7B7"/>
<circle cx="67.5" cy="16.5" r="2.5" fill="#B7B7B7"/>
<circle cx="67.5" cy="44.5" r="2.5" fill="#B7B7B7"/>
<circle cx="67.5" cy="72.5" r="2.5" fill="#B7B7B7"/>
<circle cx="67.5" cy="100.5" r="2.5" fill="#B7B7B7"/>
<circle cx="38.5" cy="2.5" r="2.5" fill="#B7B7B7"/>
<circle cx="38.5" cy="30.5" r="2.5" fill="#B7B7B7"/>
<circle cx="38.5" cy="58.5" r="2.5" fill="#B7B7B7"/>
<circle cx="38.5" cy="86.5" r="2.5" fill="#B7B7B7"/>
<circle cx="38.5" cy="114.5" r="2.5" fill="#B7B7B7"/>
<circle cx="38.5" cy="16.5" r="2.5" fill="#B7B7B7"/>
<circle cx="38.5" cy="44.5" r="2.5" fill="#B7B7B7"/>
<circle cx="38.5" cy="72.5" r="2.5" fill="#B7B7B7"/>
<circle cx="38.5" cy="100.5" r="2.5" fill="#B7B7B7"/>
<circle cx="81.5" cy="2.5" r="2.5" fill="#B7B7B7"/>
<circle cx="81.5" cy="30.5" r="2.5" fill="#B7B7B7"/>
<circle cx="81.5" cy="58.5" r="2.5" fill="#B7B7B7"/>
<circle cx="81.5" cy="86.5" r="2.5" fill="#B7B7B7"/>
<circle cx="81.5" cy="114.5" r="2.5" fill="#B7B7B7"/>
<circle cx="81.5" cy="16.5" r="2.5" fill="#B7B7B7"/>
<circle cx="81.5" cy="44.5" r="2.5" fill="#B7B7B7"/>
<circle cx="81.5" cy="72.5" r="2.5" fill="#B7B7B7"/>
<circle cx="81.5" cy="100.5" r="2.5" fill="#B7B7B7"/>
</g>
<defs>
<clipPath id="clip0_37_344">
<rect width="128" height="117" fill="white" transform="translate(-35)"/>
</clipPath>
</defs>
</svg>
