<svg width="1920" height="1080" viewBox="0 0 1920 1080" fill="none" xmlns="http://www.w3.org/2000/svg">
<g clip-path="url(#clip0_33_233)">
<g clip-path="url(#clip1_33_233)">
<mask id="mask0_33_233" style="mask-type:luminance" maskUnits="userSpaceOnUse" x="0" y="-1" width="2081" height="1081">
<path d="M2081 1079.5H0.541809V-0.5H2081" fill="white"/>
</mask>
<g mask="url(#mask0_33_233)">
<path d="M1020.62 537.5L931.764 365.5L724.368 399.5L1020.62 537.5Z" stroke="#0F0F0F" stroke-opacity="0.03"/>
<path d="M724.368 399.5L808.236 681.5L1020.62 537.5L724.368 399.5Z" stroke="#0F0F0F" stroke-opacity="0.03"/>
<path d="M724.368 399.5L609.509 509.5L808.236 681.5L724.368 399.5Z" stroke="#0F0F0F" stroke-opacity="0.03"/>
<path d="M609.509 509.5L633.348 679.5L808.236 681.5L609.509 509.5Z" stroke="#0F0F0F" stroke-opacity="0.03"/>
<path d="M1151.95 185.5L953.435 211.5L931.764 365.5L1151.95 185.5Z" stroke="#0F0F0F" stroke-opacity="0.03"/>
<path d="M931.764 365.5L733.036 207.5L724.368 399.5L931.764 365.5Z" stroke="#0F0F0F" stroke-opacity="0.03"/>
<path d="M953.435 211.5L733.036 207.5L931.764 365.5L953.435 211.5Z" stroke="#0F0F0F" stroke-opacity="0.03"/>
<path d="M724.368 399.5L568.984 247.5L609.509 509.5L724.368 399.5Z" stroke="#0F0F0F" stroke-opacity="0.03"/>
<path d="M249.113 427.5L506.137 577.5L609.509 509.5L249.113 427.5Z" stroke="#0F0F0F" stroke-opacity="0.03"/>
<path d="M609.509 509.5L506.137 577.5L633.348 679.5L609.509 509.5Z" stroke="#0F0F0F" stroke-opacity="0.03"/>
<path d="M443.289 825.5L752.541 849.5L633.348 679.5L443.289 825.5Z" stroke="#0F0F0F" stroke-opacity="0.03"/>
<path d="M633.348 679.5L752.541 849.5L808.236 681.5L633.348 679.5Z" stroke="#0F0F0F" stroke-opacity="0.03"/>
<path d="M1225.63 813.5L1229.96 621.5L1020.62 537.5L1225.63 813.5Z" stroke="#0F0F0F" stroke-opacity="0.03"/>
<path d="M733.036 207.5L568.984 247.5L724.368 399.5L733.036 207.5Z" stroke="#0F0F0F" stroke-opacity="0.03"/>
<path d="M1003.28 917.5L1020.62 537.5L808.236 681.5L1003.28 917.5Z" stroke="#0F0F0F" stroke-opacity="0.03"/>
<path d="M1020.62 537.5L1268.97 359.5L931.764 365.5L1020.62 537.5Z" stroke="#0F0F0F" stroke-opacity="0.03"/>
<path d="M1229.96 621.5L1268.97 359.5L1020.62 537.5L1229.96 621.5Z" stroke="#0F0F0F" stroke-opacity="0.03"/>
<path d="M1268.97 359.5L1151.95 185.5L931.764 365.5L1268.97 359.5Z" stroke="#0F0F0F" stroke-opacity="0.03"/>
<path d="M953.435 211.5L728.702 -0.5L733.036 207.5L953.435 211.5Z" stroke="#0F0F0F" stroke-opacity="0.03"/>
<path d="M752.541 849.5L1003.28 917.5L808.236 681.5L752.541 849.5Z" stroke="#0F0F0F" stroke-opacity="0.03"/>
<path d="M1003.28 917.5L1225.63 813.5L1020.62 537.5L1003.28 917.5Z" stroke="#0F0F0F" stroke-opacity="0.03"/>
<path d="M1229.96 621.5L1387.51 571.5L1268.97 359.5L1229.96 621.5Z" stroke="#0F0F0F" stroke-opacity="0.03"/>
<path d="M249.113 427.5L352.269 629.5L506.137 577.5L249.113 427.5Z" stroke="#0F0F0F" stroke-opacity="0.03"/>
<path d="M506.136 577.5L443.289 825.5L633.348 679.5L506.136 577.5Z" stroke="#0F0F0F" stroke-opacity="0.03"/>
<path d="M352.269 629.5L443.289 825.5L506.136 577.5L352.269 629.5Z" stroke="#0F0F0F" stroke-opacity="0.03"/>
<path d="M752.541 849.5L787.215 1079.5L1003.28 917.5L752.541 849.5Z" stroke="#0F0F0F" stroke-opacity="0.03"/>
<path d="M1225.63 813.5L1350.67 685.5L1229.96 621.5L1225.63 813.5Z" stroke="#0F0F0F" stroke-opacity="0.03"/>
<path d="M1350.67 685.5L1387.51 571.5L1229.96 621.5L1350.67 685.5Z" stroke="#0F0F0F" stroke-opacity="0.03"/>
<path d="M733.036 207.5L577.652 -0.5L568.984 247.5L733.036 207.5Z" stroke="#0F0F0F" stroke-opacity="0.03"/>
<path d="M1022.78 -0.5H728.702L953.435 211.5L1022.78 -0.5Z" stroke="#0F0F0F" stroke-opacity="0.03"/>
<path d="M1151.95 185.5L1022.78 -0.5L953.435 211.5L1151.95 185.5Z" stroke="#0F0F0F" stroke-opacity="0.03"/>
<path d="M1268.97 359.5L1279.16 147.5L1151.95 185.5L1268.97 359.5Z" stroke="#0F0F0F" stroke-opacity="0.03"/>
<path d="M1151.95 185.5L1227.8 -0.5H1022.78L1151.95 185.5Z" stroke="#0F0F0F" stroke-opacity="0.03"/>
<path d="M1461.2 291.5L1279.16 147.5L1268.97 359.5L1461.2 291.5Z" stroke="#0F0F0F" stroke-opacity="0.03"/>
<path d="M1225.63 813.5L1415.69 863.5L1350.67 685.5L1225.63 813.5Z" stroke="#0F0F0F" stroke-opacity="0.03"/>
<path d="M1003.28 917.5L1182.29 957.5L1225.63 813.5L1003.28 917.5Z" stroke="#0F0F0F" stroke-opacity="0.03"/>
<path d="M985.942 1079.5L1182.29 957.5L1003.28 917.5L985.942 1079.5Z" stroke="#0F0F0F" stroke-opacity="0.03"/>
<path d="M316.295 217.5L249.113 427.5L568.984 247.5L316.295 217.5Z" stroke="#0F0F0F" stroke-opacity="0.03"/>
<path d="M568.984 247.5L249.113 427.5L609.509 509.5L568.984 247.5Z" stroke="#0F0F0F" stroke-opacity="0.03"/>
<path d="M352.269 629.5L244.779 725.5L443.289 825.5L352.269 629.5Z" stroke="#0F0F0F" stroke-opacity="0.03"/>
<path d="M728.702 -0.5H577.652L733.036 207.5L728.702 -0.5Z" stroke="#0F0F0F" stroke-opacity="0.03"/>
<path d="M380.442 65.5L316.295 217.5L568.984 247.5L380.442 65.5Z" stroke="#0F0F0F" stroke-opacity="0.03"/>
<path d="M536.477 1079.5H787.215L752.541 849.5L536.477 1079.5Z" stroke="#0F0F0F" stroke-opacity="0.03"/>
<path d="M787.215 1079.5H985.942L1003.28 917.5L787.215 1079.5Z" stroke="#0F0F0F" stroke-opacity="0.03"/>
<path d="M249.113 427.5L244.779 725.5L352.269 629.5L249.113 427.5Z" stroke="#0F0F0F" stroke-opacity="0.03"/>
<path d="M443.289 825.5L536.477 1079.5L752.541 849.5L443.289 825.5Z" stroke="#0F0F0F" stroke-opacity="0.03"/>
<path d="M1532.06 377.5L1461.2 291.5L1268.97 359.5L1532.06 377.5Z" stroke="#0F0F0F" stroke-opacity="0.03"/>
<path d="M1493.7 -0.5H1227.8L1279.16 147.5L1493.7 -0.5Z" stroke="#0F0F0F" stroke-opacity="0.03"/>
<path d="M1279.16 147.5L1227.8 -0.5L1151.95 185.5L1279.16 147.5Z" stroke="#0F0F0F" stroke-opacity="0.03"/>
<path d="M577.652 -0.5L380.442 65.5L568.984 247.5L577.652 -0.5Z" stroke="#0F0F0F" stroke-opacity="0.03"/>
<path d="M1357.17 1079.5L1415.69 863.5L1182.29 957.5L1357.17 1079.5Z" stroke="#0F0F0F" stroke-opacity="0.03"/>
<path d="M1182.29 957.5L1415.69 863.5L1225.63 813.5L1182.29 957.5Z" stroke="#0F0F0F" stroke-opacity="0.03"/>
<path d="M1350.67 685.5L1620.92 745.5L1387.51 571.5L1350.67 685.5Z" stroke="#0F0F0F" stroke-opacity="0.03"/>
<path d="M1387.51 571.5L1532.06 377.5L1268.97 359.5L1387.51 571.5Z" stroke="#0F0F0F" stroke-opacity="0.03"/>
<path d="M316.295 217.5L184.099 359.5L249.113 427.5L316.295 217.5Z" stroke="#0F0F0F" stroke-opacity="0.03"/>
<path d="M249.113 427.5L0.541809 511.5L244.779 725.5L249.113 427.5Z" stroke="#0F0F0F" stroke-opacity="0.03"/>
<path d="M0.541809 213.5L184.099 359.5L316.295 217.5L0.541809 213.5Z" stroke="#0F0F0F" stroke-opacity="0.03"/>
<path d="M1672.93 509.5L1532.06 377.5L1387.51 571.5L1672.93 509.5Z" stroke="#0F0F0F" stroke-opacity="0.03"/>
<path d="M1461.2 291.5L1493.7 -0.5L1279.16 147.5L1461.2 291.5Z" stroke="#0F0F0F" stroke-opacity="0.03"/>
<path d="M233.943 825.5L536.477 1079.5L443.289 825.5H233.943Z" stroke="#0F0F0F" stroke-opacity="0.03"/>
<path d="M985.942 1079.5H1180.12L1182.29 957.5L985.942 1079.5Z" stroke="#0F0F0F" stroke-opacity="0.03"/>
<path d="M0.541809 749.5L233.943 825.5L244.779 725.5L0.541809 749.5Z" stroke="#0F0F0F" stroke-opacity="0.03"/>
<path d="M244.779 725.5L233.943 825.5H443.289L244.779 725.5Z" stroke="#0F0F0F" stroke-opacity="0.03"/>
<path d="M577.652 -0.5H335.799L380.442 65.5L577.652 -0.5Z" stroke="#0F0F0F" stroke-opacity="0.03"/>
<path d="M380.442 65.5L335.799 -0.5L316.295 217.5L380.442 65.5Z" stroke="#0F0F0F" stroke-opacity="0.03"/>
<path d="M1357.17 1079.5L1508.22 915.5L1415.69 863.5L1357.17 1079.5Z" stroke="#0F0F0F" stroke-opacity="0.03"/>
<path d="M1415.69 863.5L1620.92 745.5L1350.67 685.5L1415.69 863.5Z" stroke="#0F0F0F" stroke-opacity="0.03"/>
<path d="M1180.12 1079.5H1357.17L1182.29 957.5L1180.12 1079.5Z" stroke="#0F0F0F" stroke-opacity="0.03"/>
<path d="M1508.22 915.5L1620.92 745.5L1415.69 863.5L1508.22 915.5Z" stroke="#0F0F0F" stroke-opacity="0.03"/>
<path d="M1620.92 745.5L1672.93 509.5L1387.51 571.5L1620.92 745.5Z" stroke="#0F0F0F" stroke-opacity="0.03"/>
<path d="M1651.26 121.5L1493.7 -0.5L1461.2 291.5L1651.26 121.5Z" stroke="#0F0F0F" stroke-opacity="0.03"/>
<path d="M1651.26 121.5L1461.2 291.5L1532.06 377.5L1651.26 121.5Z" stroke="#0F0F0F" stroke-opacity="0.03"/>
<path d="M0.541809 449.5V511.5L249.113 427.5L0.541809 449.5Z" stroke="#0F0F0F" stroke-opacity="0.03"/>
<path d="M0.541809 449.5L249.113 427.5L184.099 359.5L0.541809 449.5Z" stroke="#0F0F0F" stroke-opacity="0.03"/>
<path d="M0.541809 213.5V449.5L184.099 359.5L0.541809 213.5Z" stroke="#0F0F0F" stroke-opacity="0.03"/>
<path d="M0.541809 511.5V749.5L244.779 725.5L0.541809 511.5Z" stroke="#0F0F0F" stroke-opacity="0.03"/>
<path d="M233.943 825.5L121.252 1079.5H536.477L233.943 825.5Z" stroke="#0F0F0F" stroke-opacity="0.03"/>
<path d="M1793.42 221.5L1651.26 121.5L1532.06 377.5L1793.42 221.5Z" stroke="#0F0F0F" stroke-opacity="0.03"/>
<path d="M0.541809 -0.5V213.5L316.295 217.5L0.541809 -0.5Z" stroke="#0F0F0F" stroke-opacity="0.03"/>
<path d="M0.541809 971.5L121.252 1079.5L233.943 825.5L0.541809 971.5Z" stroke="#0F0F0F" stroke-opacity="0.03"/>
<path d="M0.541809 749.5V971.5L233.943 825.5L0.541809 749.5Z" stroke="#0F0F0F" stroke-opacity="0.03"/>
<path d="M1672.93 509.5L1793.42 221.5L1532.06 377.5L1672.93 509.5Z" stroke="#0F0F0F" stroke-opacity="0.03"/>
<path d="M1651.26 121.5L1705.43 -0.5H1493.7L1651.26 121.5Z" stroke="#0F0F0F" stroke-opacity="0.03"/>
<path d="M1895.28 343.5L1793.42 221.5L1672.93 509.5L1895.28 343.5Z" stroke="#0F0F0F" stroke-opacity="0.03"/>
<path d="M1508.22 915.5L1780.42 833.5L1620.92 745.5L1508.22 915.5Z" stroke="#0F0F0F" stroke-opacity="0.03"/>
<path d="M1620.92 745.5L1780.42 833.5L1672.93 509.5L1620.92 745.5Z" stroke="#0F0F0F" stroke-opacity="0.03"/>
<path d="M1683.76 1079.5L1780.42 833.5L1508.22 915.5L1683.76 1079.5Z" stroke="#0F0F0F" stroke-opacity="0.03"/>
<path d="M335.799 -0.5H0.541809L316.295 217.5L335.799 -0.5Z" stroke="#0F0F0F" stroke-opacity="0.03"/>
<path d="M1793.42 221.5L1705.43 -0.5L1651.26 121.5L1793.42 221.5Z" stroke="#0F0F0F" stroke-opacity="0.03"/>
<path d="M1357.17 1079.5H1683.76L1508.22 915.5L1357.17 1079.5Z" stroke="#0F0F0F" stroke-opacity="0.03"/>
<path d="M0.541809 971.5V1079.5H121.252L0.541809 971.5Z" stroke="#0F0F0F" stroke-opacity="0.03"/>
<path d="M1973.29 587.5L1895.28 343.5L1672.93 509.5L1973.29 587.5Z" stroke="#0F0F0F" stroke-opacity="0.03"/>
<path d="M1793.42 221.5L1953.79 -0.5H1705.43L1793.42 221.5Z" stroke="#0F0F0F" stroke-opacity="0.03"/>
<path d="M1780.42 833.5L1973.29 587.5L1672.93 509.5L1780.42 833.5Z" stroke="#0F0F0F" stroke-opacity="0.03"/>
<path d="M1867.1 1079.5L1938.62 953.5L1780.42 833.5L1867.1 1079.5Z" stroke="#0F0F0F" stroke-opacity="0.03"/>
<path d="M1683.76 1079.5H1867.1L1780.42 833.5L1683.76 1079.5Z" stroke="#0F0F0F" stroke-opacity="0.03"/>
<path d="M1973.29 587.5L2081 473.5L1895.28 343.5L1973.29 587.5Z" stroke="#0F0F0F" stroke-opacity="0.03"/>
<path d="M2081 295.5L1953.79 -0.5L1793.42 221.5L2081 295.5Z" stroke="#0F0F0F" stroke-opacity="0.03"/>
<path d="M2081 295.5L1793.42 221.5L1895.28 343.5L2081 295.5Z" stroke="#0F0F0F" stroke-opacity="0.03"/>
<path d="M2081 785.5L1973.29 587.5L1780.42 833.5L2081 785.5Z" stroke="#0F0F0F" stroke-opacity="0.03"/>
<path d="M2081 295.5L1895.28 343.5L2081 473.5" stroke="#0F0F0F" stroke-opacity="0.03"/>
<path d="M1938.62 953.5L2081 785.5L1780.42 833.5L1938.62 953.5Z" stroke="#0F0F0F" stroke-opacity="0.03"/>
<path d="M1867.1 1079.5H2081L1938.62 953.5L1867.1 1079.5Z" stroke="#0F0F0F" stroke-opacity="0.03"/>
</g>
<path d="M2081 1079.5H0.541809V-0.5H2081" stroke="#0F0F0F" stroke-opacity="0.03" stroke-miterlimit="10"/>
</g>
</g>
<defs>
<clipPath id="clip0_33_233">
<rect width="1920" height="1080" fill="white"/>
</clipPath>
<clipPath id="clip1_33_233">
<rect width="2081" height="1081" fill="white" transform="translate(0 -1)"/>
</clipPath>
</defs>
</svg>
