<?xml version="1.0" encoding="utf-8"?>
<!-- Generator: Adobe Illustrator 16.0.0, SVG Export Plug-In . SVG Version: 6.00 Build 0)  -->
<!DOCTYPE svg PUBLIC "-//W3C//DTD SVG 1.1//EN" "http://www.w3.org/Graphics/SVG/1.1/DTD/svg11.dtd">
<svg version="1.1" xmlns="http://www.w3.org/2000/svg" xmlns:xlink="http://www.w3.org/1999/xlink" x="0px" y="0px" width="792px"
	 height="612px" viewBox="0 0 792 612" enable-background="new 0 0 792 612" xml:space="preserve">
<g id="Layer_1">
	<rect x="0.5" y="148.633" fill-rule="evenodd" clip-rule="evenodd" fill="#FFFFFF" width="792" height="315.734"/>
</g>
<g id="Layer_2">
	<g>
		<path d="M285.523,367.65v-84.563h-15.374v84.563H285.523L285.523,367.65z M277.836,249.717c-1.863,0.029-3.522,0.436-4.979,1.282
			c-1.426,0.844-2.563,1.979-3.378,3.436c-0.815,1.426-1.224,3.056-1.252,4.891c0.029,1.777,0.409,3.349,1.195,4.777
			c0.786,1.426,1.863,2.532,3.26,3.378c1.399,0.844,3,1.25,4.806,1.279c2.037-0.029,3.813-0.436,5.299-1.279
			c1.486-0.846,2.592-1.952,3.378-3.378c0.786-1.428,1.164-3,1.106-4.777c0-1.834-0.407-3.465-1.164-4.891
			c-0.757-1.457-1.865-2.592-3.263-3.436C281.447,250.153,279.757,249.747,277.836,249.717L277.836,249.717z M306.664,262.821
			v20.266h-13.104v11.707h13.104v46.125c-0.029,4.979,0.409,9.348,1.339,13.046c0.904,3.697,2.445,6.696,4.602,8.968
			c1.863,2.097,4.193,3.698,6.987,4.805c2.796,1.107,5.999,1.661,9.61,1.661c2.97,0,5.621-0.204,7.92-0.584
			c2.301-0.378,4.222-0.902,5.708-1.513l-0.7-11.531c-0.959,0.262-2.183,0.524-3.669,0.727c-1.484,0.204-3.231,0.321-5.241,0.321
			c-2.823,0-5.095-0.642-6.783-1.923c-1.69-1.281-2.914-3.145-3.669-5.591c-0.728-2.444-1.108-5.416-1.079-8.91v-45.601h22.014
			v-11.707h-22.014v-24.286L306.664,262.821L306.664,262.821z M420.055,328.164c0.087-0.786,0.204-1.776,0.32-2.998
			c0.117-1.195,0.204-2.592,0.204-4.164c0.028-3.146-0.32-6.523-0.99-10.105c-0.669-3.609-1.774-7.134-3.348-10.628
			c-1.572-3.496-3.7-6.698-6.378-9.552c-2.679-2.883-5.999-5.181-9.988-6.9c-3.989-1.719-8.735-2.621-14.238-2.65
			c-6.174,0.029-11.707,1.224-16.599,3.523c-4.891,2.33-9.026,5.563-12.462,9.697c-3.436,4.164-6.056,8.97-7.862,14.503
			c-1.806,5.503-2.709,11.471-2.738,17.878c0.029,6.405,0.961,12.202,2.825,17.413c1.893,5.212,4.631,9.696,8.211,13.454
			c3.583,3.756,7.951,6.667,13.075,8.677c5.126,2.039,10.95,3.059,17.472,3.088c4.484-0.029,8.504-0.291,12.085-0.815
			c3.553-0.524,6.669-1.194,9.348-1.981c2.649-0.786,4.893-1.601,6.696-2.445l-2.621-11.007c-1.893,0.815-3.96,1.572-6.172,2.212
			c-2.243,0.671-4.746,1.195-7.542,1.573c-2.826,0.379-6.057,0.581-9.697,0.581c-3.873,0-7.513-0.553-10.978-1.658
			c-3.436-1.106-6.494-2.854-9.172-5.213c-2.65-2.358-4.775-5.417-6.348-9.115c-1.543-3.727-2.388-8.182-2.505-13.365H420.055
			L420.055,328.164z M360.827,317.157c0.291-2.708,0.961-5.504,2.01-8.416c1.048-2.882,2.532-5.561,4.395-8.066
			c1.895-2.503,4.282-4.542,7.107-6.114c2.823-1.544,6.201-2.359,10.074-2.388c3.436,0.029,6.407,0.582,8.881,1.659
			c2.475,1.077,4.513,2.505,6.143,4.311c1.633,1.806,2.914,3.813,3.845,5.999c0.933,2.183,1.602,4.395,1.952,6.667
			c0.378,2.243,0.553,4.368,0.493,6.348H360.827z"/>
		<path d="M438.923,282.215l24.811,85.436h24.983l8.562-30.052c0.757-2.649,1.457-5.356,2.125-8.096
			c0.642-2.736,1.253-5.59,1.835-8.619c0.553-3.027,1.106-6.318,1.63-9.841h0.352c0.582,3.464,1.163,6.696,1.717,9.667
			c0.553,2.999,1.137,5.853,1.747,8.62c0.611,2.736,1.253,5.503,1.95,8.269l8.038,30.052h24.985l26.207-85.436H541.83l-7.338,33.894
			c-0.959,4.894-1.863,9.755-2.707,14.59c-0.844,4.833-1.572,9.696-2.184,14.589h-0.351c-0.873-4.893-1.863-9.756-2.94-14.561
			c-1.077-4.832-2.215-9.639-3.349-14.442l-8.563-34.069h-20.966l-9.084,35.117c-1.077,4.223-2.154,8.707-3.262,13.453
			c-1.136,4.746-2.126,9.581-3.027,14.502h-0.351c-0.698-4.893-1.484-9.696-2.3-14.385c-0.846-4.718-1.719-9.29-2.591-13.745
			l-6.814-34.942H438.923L438.923,282.215z M601.583,367.65v-85.436h-26.556v85.436H601.583L601.583,367.65z M588.304,245
			c-2.883,0.029-5.356,0.611-7.453,1.777c-2.126,1.164-3.727,2.765-4.864,4.775c-1.164,2.008-1.688,4.309-1.659,6.9
			c-0.028,2.476,0.495,4.717,1.631,6.698c1.137,2.008,2.738,3.581,4.835,4.775c2.067,1.164,4.513,1.777,7.338,1.806
			c2.94-0.029,5.445-0.642,7.6-1.806c2.126-1.194,3.785-2.767,4.951-4.775c1.163-1.981,1.745-4.222,1.774-6.698
			c-0.058-2.592-0.697-4.893-1.835-6.9c-1.163-2.01-2.794-3.611-4.891-4.775C593.663,245.611,591.158,245.029,588.304,245
			L588.304,245z M641.594,243.601h-26.557V367.65h26.557v-26.731l6.813-8.387l20.617,35.118h32.673l-34.944-50.842l30.575-34.594
			h-31.973l-17.297,25.683c-1.048,1.659-2.097,3.35-3.116,5.096c-1.048,1.719-2.038,3.467-3,5.212h-0.349V243.601L641.594,243.601z
			 M732.797,367.65v-85.436h-26.556v85.436H732.797L732.797,367.65z M719.518,245c-2.883,0.029-5.356,0.611-7.453,1.777
			c-2.126,1.164-3.727,2.765-4.864,4.775c-1.164,2.008-1.688,4.309-1.659,6.9c-0.028,2.476,0.495,4.717,1.631,6.698
			c1.137,2.008,2.738,3.581,4.835,4.775c2.067,1.164,4.513,1.777,7.338,1.806c2.94-0.029,5.445-0.642,7.6-1.806
			c2.126-1.194,3.785-2.767,4.95-4.775c1.164-1.981,1.746-4.222,1.775-6.698c-0.058-2.592-0.697-4.893-1.835-6.9
			c-1.164-2.01-2.794-3.611-4.891-4.775C724.877,245.611,722.372,245.029,719.518,245z"/>
		<path fill-rule="evenodd" clip-rule="evenodd" d="M143.602,346.652l-40.002-40.344l-44.066-44.442l-0.203,89.298l39.796,39.585
			L143.602,346.652L143.602,346.652z M152.744,266.346l40.001,40.344l44.064,44.442l0.205-0.205v-89.093l-39.796-39.583
			L152.744,266.346z"/>
		<polygon fill-rule="evenodd" clip-rule="evenodd" points="188.326,311.071 147.981,351.072 103.54,395.139 192.834,395.343 
			232.419,355.545 		"/>
		<polygon fill-rule="evenodd" clip-rule="evenodd" points="108.019,301.927 148.363,261.926 192.805,217.862 103.505,217.657 
			63.924,257.454 		"/>
	</g>
</g>
</svg>
