<svg enable-background="new 0 0 124.9 124" viewBox="0 0 124.9 124" xmlns="http://www.w3.org/2000/svg"><g fill="#fff"><path d="m6.4 46.6.5.8 2.2.7-.5 1.5-7.1-2.2.5-1.6 3.2 1-2.4-3.5.6-1.9 2.4 3.9 4.7-1.8-.6 1.9z"></path><path d="m6.8 33.7c1.1-2 3.3-2.7 5.2-1.6 2 1.1 2.6 3.3 1.6 5.3-1.1 2-3.3 2.7-5.2 1.6s-2.6-3.3-1.6-5.3zm1.3.7c-.6 1.2-.1 2.5 1.1 3.2 1.2.6 2.6.4 3.2-.8s.1-2.5-1.1-3.2-2.6-.4-3.2.8z"></path><path d="m14.1 23c1.5-1.7 3.8-2 5.4-.5 1.7 1.5 1.9 3.8.5 5.4-1.5 1.7-3.7 1.9-5.4.5s-1.9-3.7-.5-5.4zm1.1.9c-.9 1.1-.6 2.4.4 3.3 1.1.8 2.4.9 3.4-.2.9-1.1.6-2.4-.4-3.3-1.1-.9-2.5-.9-3.4.2z"></path><path d="m20.8 16.2 2.3-1.8c1.8-1.5 4-1.3 5.4.5 1.4 1.7 1.1 3.9-.8 5.4l-2.2 1.7zm6.1 2.9c1.1-.9 1.2-2.3.4-3.3-.8-1.1-2.1-1.3-3.3-.4l-1.1.8 2.9 3.7z"></path><path d="m30.8 9.1 1.4-.8 3.7 6.5-1.4.8z"></path><path d="m43.8 9.8-3.1 1.2v1.4l-1.6.6.1-8 1.8-.7 5.4 6-1.6.6zm-3.2-.3 2.3-.9-2.4-2.7z"></path><path d="m56.1 6c.5.5 1.4.9 2.4.8.9 0 1.3-.5 1.2-.9 0-.5-.7-.7-1.6-.8-1.1-.2-2.7-.4-2.8-2.1-.1-1.2.9-2.3 2.7-2.4 1.2-.1 2.2.2 3 .8l-.8 1.2c-.7-.5-1.5-.6-2.3-.6-.7 0-1.1.4-1.1.8 0 .5.7.6 1.6.7 1.2.2 2.8.5 3 2.1.1 1.4-.8 2.5-2.8 2.6-1.4.1-2.5-.3-3.3-1z"></path><path d="m66.4.5 1.6.2-.5 4.4c-.1 1 .4 1.8 1.5 1.9s1.8-.5 1.9-1.6l.5-4.4 1.6.2-.5 4.4c-.2 1.8-1.4 3-3.6 2.7-2.2-.2-3.2-1.6-3-3.4z"></path><path d="m82.3 3.4c2.2.7 3.2 2.7 2.5 4.9s-2.7 3.2-4.9 2.5-3.2-2.7-2.5-4.9c.7-2.1 2.7-3.2 4.9-2.5zm-.5 1.4c-1.3-.4-2.5.3-2.9 1.6s.1 2.6 1.4 3 2.5-.3 2.9-1.6c.5-1.3 0-2.6-1.4-3z"></path><path d="m95.7 12.2-4.5 3.6-.6-.4.9-5.7-2.7 4.6-1.4-.8 3.8-6.4 1.9 1.1-.8 4.9 3.9-3.1 1.9 1.1-3.8 6.4-1.3-.7z"></path><path d="m102.8 14.8 3.9 3.5-.9 1-2.7-2.4-1.1 1.1 2.7 2.4-.9 1-2.7-2.4-1.1 1.3 2.7 2.4-.9 1-3.9-3.5z"></path><path d="m106.7 25.9c-.1.7 0 1.7.7 2.5.5.7 1.1.8 1.5.5.5-.4.2-1-.2-1.8-.5-1.1-1.2-2.6 0-3.6 1-.8 2.4-.5 3.5.8.7.9 1.1 1.9 1 2.9h-1.5c0-.8-.2-1.6-.7-2.2-.5-.5-.9-.6-1.3-.4-.4.3-.1.9.2 1.7.5 1.1 1.2 2.6 0 3.6-1.1.9-2.5.7-3.7-.9-.9-1.1-1.1-2.2-1.1-3.2z"></path><path d="m116.6 33.4-1.1-1.9 1.2-.7 2.8 5.2-1.2.7-1.1-1.9-5.3 2.9-.8-1.4z"></path><path d="m117.2 46.7-1.1-3.2h-1.4l-.5-1.6 8 .3.6 1.9-6.1 5.2-.5-1.6zm.3-3.2.8 2.3 2.8-2.3z"></path><path d="m34.3 117c-.1 0-.2 0-.4-.1-19.6-10.6-31.7-31-31.7-53.2 0-3.6.3-7.2 1-10.7.1-.4.5-.7.9-.6s.7.5.6.9c-.6 3.4-.9 6.9-.9 10.4 0 21.7 11.8 41.5 30.9 51.9.4.2.5.7.3 1.1-.2.2-.5.3-.7.3z"></path><path d="m91.3 117c-.3 0-.5-.1-.7-.4-.2-.4 0-.8.3-1.1 19-10.3 30.9-30.2 30.9-51.9 0-3.5-.3-7-.9-10.4-.1-.4.2-.8.6-.9s.8.2.9.6c.6 3.5 1 7.1 1 10.7 0 22.2-12.1 42.6-31.7 53.2-.2.2-.3.2-.4.2z"></path><path d="m38.6 121.2c0-1.1.5-2.2 1.7-2.2s1.7 1.1 1.7 2.2-.5 2.2-1.7 2.2c-1.1.1-1.7-1.1-1.7-2.2zm2.7 0c0-.8-.2-1.5-1-1.5-.7 0-1 .7-1 1.5s.2 1.6 1 1.6 1-.8 1-1.6z"></path><path d="m43.5 30.4c0-1.1.5-2.2 1.7-2.2s1.7 1.1 1.7 2.2-.5 2.2-1.7 2.2c-1.1 0-1.7-1.1-1.7-2.2zm2.7 0c0-.8-.2-1.5-1-1.5-.7 0-1 .7-1 1.5s.2 1.6 1 1.6c.8-.1 1-.8 1-1.6z"></path><path d="m49.2 32.5v-3.3l-.7.7-.4-.5 1.2-1.2h.7v4.3z"></path><path d="m65.4 23.9c0-1.1.5-2.2 1.7-2.2s1.7 1.1 1.7 2.2-.5 2.2-1.7 2.2-1.7-1.2-1.7-2.2zm2.7 0c0-.8-.2-1.5-1-1.5-.7 0-1 .7-1 1.5s.2 1.6 1 1.6 1-.8 1-1.6z"></path><path d="m71.1 26v-3.3l-.7.7-.4-.5 1.2-1.2h.6v4.3z"></path><path d="m73.3 23.9c0-1.1.5-2.2 1.7-2.2s1.7 1.1 1.7 2.2-.5 2.2-1.7 2.2-1.7-1.2-1.7-2.2zm2.6 0c0-.8-.2-1.5-1-1.5-.7 0-1 .7-1 1.5s.2 1.6 1 1.6c.8-.1 1-.8 1-1.6z"></path><path d="m78.9 26v-3.3l-.7.7-.4-.5 1.2-1.2h.6v4.3z"></path><path d="m63.7 69.3c0-1.1.5-2.2 1.7-2.2s1.7 1.1 1.7 2.2-.5 2.2-1.7 2.2-1.7-1.1-1.7-2.2zm2.7 0c0-.8-.2-1.5-1-1.5s-1 .7-1 1.5.2 1.6 1 1.6 1-.7 1-1.6z"></path><path d="m69.3 71.4v-3.3l-.7.7-.4-.5 1.2-1.2h.6v4.3z"></path><path d="m71.5 69.3c0-1.1.5-2.2 1.7-2.2s1.7 1.1 1.7 2.2-.5 2.2-1.7 2.2-1.7-1.1-1.7-2.2zm2.6 0c0-.8-.2-1.5-1-1.5-.7 0-1 .7-1 1.5s.2 1.6 1 1.6 1-.7 1-1.6z"></path><path d="m77.2 71.4v-3.3l-.7.7-.4-.5 1.2-1.2h.6v4.3z"></path><path d="m79.3 69.3c0-1.1.5-2.2 1.7-2.2s1.7 1.1 1.7 2.2-.5 2.2-1.7 2.2c-1.1 0-1.7-1.1-1.7-2.2zm2.7 0c0-.8-.2-1.5-1-1.5-.7 0-1 .7-1 1.5s.2 1.6 1 1.6 1-.7 1-1.6z"></path><path d="m84.9 71.4v-3.3l-.7.7-.4-.5 1.2-1.2h.6v4.3z"></path><path d="m63.9 32.4v-3.3l-.7.7-.4-.5 1.2-1.2h.6v4.3z"></path><path d="m66.1 30.3c0-1.1.5-2.2 1.7-2.2s1.7 1.1 1.7 2.2-.5 2.2-1.7 2.2-1.7-1.1-1.7-2.2zm2.7 0c0-.8-.2-1.5-1-1.5-.7 0-1 .7-1 1.5s.2 1.6 1 1.6c.8-.1 1-.8 1-1.6z"></path><path d="m73.2 30.3c0-1.1.5-2.2 1.7-2.2s1.7 1.1 1.7 2.2-.5 2.2-1.7 2.2-1.7-1.1-1.7-2.2zm2.6 0c0-.8-.2-1.5-1-1.5-.7 0-1 .7-1 1.5s.2 1.6 1 1.6 1-.8 1-1.6z"></path><path d="m60 77.9v-3.3l-.7.7-.4-.5 1.2-1.2h.6v4.3z"></path><path d="m62.1 75.8c0-1.1.5-2.2 1.7-2.2s1.7 1.1 1.7 2.2-.5 2.2-1.7 2.2c-1.1 0-1.7-1.1-1.7-2.2zm2.7 0c0-.8-.2-1.5-1-1.5-.7 0-1 .7-1 1.5s.2 1.6 1 1.6c.8-.1 1-.7 1-1.6z"></path><path d="m69.2 75.8c0-1.1.5-2.2 1.7-2.2s1.7 1.1 1.7 2.2-.5 2.2-1.7 2.2-1.7-1.1-1.7-2.2zm2.6 0c0-.8-.2-1.5-1-1.5-.7 0-1 .7-1 1.5s.2 1.6 1 1.6c.8-.1 1-.7 1-1.6z"></path><path d="m74.8 77.9v-3.3l-.7.7-.4-.5 1.2-1.2h.6v4.3z"></path><path d="m78 77.9v-3.3l-.7.7-.4-.5 1.2-1.2h.6v4.3z"></path><path d="m80.2 75.8c0-1.1.5-2.2 1.7-2.2s1.7 1.1 1.7 2.2-.5 2.2-1.7 2.2-1.7-1.1-1.7-2.2zm2.6 0c0-.8-.2-1.5-1-1.5-.7 0-1 .7-1 1.5s.2 1.6 1 1.6c.8-.1 1-.7 1-1.6z"></path><path d="m85.8 77.9v-3.3l-.7.7-.4-.5 1.2-1.2h.6v4.3z"></path><path d="m50.7 39v-3.3l-.7.7-.4-.5 1.2-1.2h.6v4.3z"></path><path d="m53.9 39v-3.3l-.7.7-.4-.5 1.2-1.2h.6v4.3z"></path><path d="m56.1 36.8c0-1.1.5-2.2 1.7-2.2s1.7 1.1 1.7 2.2-.5 2.2-1.7 2.2-1.7-1.1-1.7-2.2zm2.7 0c0-.8-.2-1.5-1-1.5-.7 0-1 .7-1 1.5s.2 1.6 1 1.6c.7 0 1-.8 1-1.6z"></path><path d="m61.7 39v-3.3l-.7.7-.4-.5 1.2-1.2h.6v4.3z"></path><path d="m63.9 36.8c0-1.1.5-2.2 1.7-2.2s1.7 1.1 1.7 2.2-.5 2.2-1.7 2.2c-1.2.1-1.7-1.1-1.7-2.2zm2.7 0c0-.8-.2-1.5-1-1.5-.7 0-1 .7-1 1.5s.2 1.6 1 1.6c.7 0 1-.8 1-1.6z"></path><path d="m68.6 36.8c0-1.1.5-2.2 1.7-2.2s1.7 1.1 1.7 2.2-.5 2.2-1.7 2.2c-1.2.1-1.7-1.1-1.7-2.2zm2.6 0c0-.8-.2-1.5-1-1.5-.7 0-1 .7-1 1.5s.2 1.6 1 1.6 1-.8 1-1.6z"></path><path d="m74.2 39v-3.3l-.7.7-.4-.5 1.2-1.2h.7v4.3z"></path><path d="m47.6 108.3c0-1.1.5-2.2 1.7-2.2s1.7 1.1 1.7 2.2-.5 2.2-1.7 2.2-1.7-1.1-1.7-2.2zm2.7 0c0-.8-.2-1.5-1-1.5-.7 0-1 .7-1 1.5s.2 1.6 1 1.6 1-.8 1-1.6z"></path><path d="m53.3 110.4v-3.3l-.7.7-.4-.5 1.2-1.2h.6v4.3z"></path><path d="m55.5 108.3c0-1.1.5-2.2 1.7-2.2s1.7 1.1 1.7 2.2-.5 2.2-1.7 2.2-1.7-1.1-1.7-2.2zm2.6 0c0-.8-.2-1.5-1-1.5-.7 0-1 .7-1 1.5s.2 1.6 1 1.6c.7 0 1-.8 1-1.6z"></path><path d="m60.1 108.3c0-1.1.5-2.2 1.7-2.2s1.7 1.1 1.7 2.2-.5 2.2-1.7 2.2-1.7-1.1-1.7-2.2zm2.7 0c0-.8-.2-1.5-1-1.5-.7 0-1 .7-1 1.5s.2 1.6 1 1.6 1-.8 1-1.6z"></path><path d="m65.8 110.4v-3.3l-.7.7-.4-.5 1.2-1.2h.6v4.3z"></path><path d="m70.3 108.3c0-1.1.5-2.2 1.7-2.2s1.7 1.1 1.7 2.2-.5 2.2-1.7 2.2-1.7-1.1-1.7-2.2zm2.6 0c0-.8-.2-1.5-1-1.5-.7 0-1 .7-1 1.5s.2 1.6 1 1.6 1-.8 1-1.6z"></path><path d="m75.9 110.4v-3.3l-.7.7-.4-.5 1.2-1.2h.6v4.3z"></path><path d="m79.1 110.4v-3.3l-.7.7-.4-.5 1.2-1.2h.6v4.3z"></path><path d="m81.3 108.3c0-1.1.5-2.2 1.7-2.2s1.7 1.1 1.7 2.2-.5 2.2-1.7 2.2-1.7-1.1-1.7-2.2zm2.6 0c0-.8-.2-1.5-1-1.5-.7 0-1 .7-1 1.5s.2 1.6 1 1.6 1-.8 1-1.6z"></path><path d="m86.9 110.4v-3.3l-.7.7-.4-.5 1.2-1.2h.6v4.3z"></path><path d="m54.4 82.3c0-1.1.5-2.2 1.7-2.2s1.7 1.1 1.7 2.2-.5 2.2-1.7 2.2-1.7-1.1-1.7-2.2zm2.7 0c0-.8-.2-1.5-1-1.5-.7 0-1 .7-1 1.5s.2 1.6 1 1.6c.7 0 1-.7 1-1.6z"></path><path d="m59.1 82.3c0-1.1.5-2.2 1.7-2.2s1.7 1.1 1.7 2.2-.5 2.2-1.7 2.2-1.7-1.1-1.7-2.2zm2.6 0c0-.8-.2-1.5-1-1.5-.7 0-1 .7-1 1.5s.2 1.6 1 1.6 1-.7 1-1.6z"></path><path d="m64.7 84.5v-3.3l-.7.7-.4-.5 1.2-1.2h.6v4.3z"></path><path d="m69.2 82.3c0-1.1.5-2.2 1.7-2.2s1.7 1.1 1.7 2.2-.5 2.2-1.7 2.2c-1.1 0-1.7-1.1-1.7-2.2zm2.7 0c0-.8-.2-1.5-1-1.5-.7 0-1 .7-1 1.5s.2 1.6 1 1.6 1-.7 1-1.6z"></path><path d="m74.9 84.5v-3.3l-.7.7-.4-.5 1.2-1.2h.6v4.3z"></path><path d="m78 84.5v-3.3l-.7.7-.4-.5 1.2-1.2h.6v4.3z"></path><path d="m80.2 82.3c0-1.1.5-2.2 1.7-2.2s1.7 1.1 1.7 2.2-.5 2.2-1.7 2.2-1.7-1.1-1.7-2.2zm2.7 0c0-.8-.2-1.5-1-1.5s-1 .7-1 1.5.2 1.6 1 1.6 1-.7 1-1.6z"></path><path d="m85.9 84.5v-3.3l-.7.7-.4-.5 1.2-1.2h.6v4.3z"></path><path d="m89 84.5v-3.3l-.7.7-.4-.5 1.2-1.2h.6v4.3z"></path><path d="m55.3 43.3c0-1.1.5-2.2 1.7-2.2s1.7 1.1 1.7 2.2-.5 2.2-1.7 2.2-1.7-1.1-1.7-2.2zm2.6 0c0-.8-.2-1.5-1-1.5-.7 0-1 .7-1 1.5s.2 1.6 1 1.6c.8-.1 1-.8 1-1.6z"></path><path d="m60.9 45.4v-3.3l-.7.7-.4-.5 1.2-1.2h.6v4.3z"></path><path d="m64.1 45.4v-3.3l-.7.7-.4-.4 1.2-1.2h.6v4.3z"></path><path d="m66.3 43.3c0-1.1.5-2.2 1.7-2.2s1.7 1.1 1.7 2.2-.5 2.2-1.7 2.2-1.7-1.1-1.7-2.2zm2.6 0c0-.8-.2-1.5-1-1.5-.7 0-1 .7-1 1.5s.2 1.6 1 1.6c.7-.1 1-.8 1-1.6z"></path><path d="m71.9 45.4v-3.3l-.7.7-.4-.5 1.2-1.2h.6v4.3z"></path><path d="m75.1 45.4v-3.3l-.7.7-.4-.4 1.2-1.2h.6v4.3z"></path><path d="m78.2 45.4v-3.3l-.7.7-.4-.5 1.2-1.2h.7v4.3z"></path><path d="m80.4 43.3c0-1.1.5-2.2 1.7-2.2s1.7 1.1 1.7 2.2-.5 2.2-1.7 2.2-1.7-1.1-1.7-2.2zm2.7 0c0-.8-.2-1.5-1-1.5-.7 0-1 .7-1 1.5s.2 1.6 1 1.6c.7-.1 1-.8 1-1.6z"></path><path d="m46.3 117v-3.3l-.7.7-.4-.5 1.2-1.2h.6v4.3z"></path><path d="m49.5 117v-3.3l-.7.7-.4-.5 1.2-1.2h.6v4.3z"></path><path d="m51.7 114.8c0-1.1.5-2.2 1.7-2.2s1.7 1.1 1.7 2.2-.5 2.2-1.7 2.2-1.7-1.1-1.7-2.2zm2.6 0c0-.8-.2-1.5-1-1.5s-1 .7-1 1.5.2 1.6 1 1.6 1-.8 1-1.6z"></path><path d="m58.7 114.8c0-1.1.5-2.2 1.7-2.2s1.7 1.1 1.7 2.2-.5 2.2-1.7 2.2-1.7-1.1-1.7-2.2zm2.7 0c0-.8-.2-1.5-1-1.5-.7 0-1 .7-1 1.5s.2 1.6 1 1.6c.7 0 1-.8 1-1.6z"></path><path d="m64.3 117v-3.3l-.7.7-.4-.5 1.2-1.2h.6v4.3z"></path><path d="m67.5 117v-3.3l-.7.7-.4-.5 1.2-1.2h.6v4.3z"></path><path d="m69.7 114.8c0-1.1.5-2.2 1.7-2.2s1.7 1.1 1.7 2.2-.5 2.2-1.7 2.2-1.7-1.1-1.7-2.2zm2.6 0c0-.8-.2-1.5-1-1.5-.7 0-1 .7-1 1.5s.2 1.6 1 1.6 1-.8 1-1.6z"></path><path d="m74.3 114.8c0-1.1.5-2.2 1.7-2.2s1.7 1.1 1.7 2.2-.5 2.2-1.7 2.2c-1.1 0-1.7-1.1-1.7-2.2zm2.7 0c0-.8-.2-1.5-1-1.5-.7 0-1 .7-1 1.5s.2 1.6 1 1.6 1-.8 1-1.6z"></path><path d="m79 114.8c0-1.1.5-2.2 1.7-2.2s1.7 1.1 1.7 2.2-.5 2.2-1.7 2.2-1.7-1.1-1.7-2.2zm2.6 0c0-.8-.2-1.5-1-1.5-.7 0-1 .7-1 1.5s.2 1.6 1 1.6 1-.8 1-1.6z"></path><path d="m54.5 49.9c0-1.1.5-2.2 1.7-2.2s1.7 1.1 1.7 2.2-.5 2.2-1.7 2.2-1.7-1.2-1.7-2.2zm2.6 0c0-.8-.2-1.5-1-1.5-.7 0-1 .7-1 1.5s.2 1.6 1 1.6c.8-.1 1-.8 1-1.6z"></path><path d="m60.1 52v-3.3l-.7.7-.4-.5 1.2-1.2h.6v4.3z"></path><path d="m63.3 52v-3.3l-.7.7-.4-.5 1.2-1.2h.6v4.3z"></path><path d="m65.5 49.9c0-1.1.5-2.2 1.7-2.2s1.7 1.1 1.7 2.2-.5 2.2-1.7 2.2-1.7-1.2-1.7-2.2zm2.6 0c0-.8-.2-1.5-1-1.5s-1 .7-1 1.5.2 1.6 1 1.6 1-.8 1-1.6z"></path><path d="m70.2 49.9c0-1.1.5-2.2 1.7-2.2s1.7 1.1 1.7 2.2-.5 2.2-1.7 2.2-1.7-1.2-1.7-2.2zm2.6 0c0-.8-.2-1.5-1-1.5-.7 0-1 .7-1 1.5s.2 1.6 1 1.6c.8-.1 1-.8 1-1.6z"></path><path d="m74.8 49.9c0-1.1.5-2.2 1.7-2.2s1.7 1.1 1.7 2.2-.5 2.2-1.7 2.2-1.7-1.2-1.7-2.2zm2.7 0c0-.8-.2-1.5-1-1.5-.7 0-1 .7-1 1.5s.2 1.6 1 1.6c.7-.1 1-.8 1-1.6z"></path><path d="m80.5 52v-3.3l-.7.7-.4-.5 1.2-1.2h.6v4.3z"></path><path d="m83.6 52v-3.3l-.7.7-.4-.5 1.2-1.2h.6v4.3z"></path><path d="m47.7 91v-3.3l-.7.7-.4-.4 1.2-1.2h.6v4.2z"></path><path d="m49.9 88.8c0-1.1.5-2.2 1.7-2.2s1.7 1.1 1.7 2.2-.5 2.2-1.7 2.2-1.7-1.1-1.7-2.2zm2.6 0c0-.8-.2-1.5-1-1.5-.7 0-1 .7-1 1.5s.2 1.6 1 1.6 1-.7 1-1.6z"></path><path d="m56.9 88.8c0-1.1.5-2.2 1.7-2.2s1.7 1.1 1.7 2.2-.5 2.2-1.7 2.2-1.7-1.1-1.7-2.2zm2.7 0c0-.8-.2-1.5-1-1.5-.7 0-1 .7-1 1.5s.2 1.6 1 1.6c.7 0 1-.7 1-1.6z"></path><path d="m62.6 91v-3.3l-.7.7-.4-.4 1.2-1.2h.6v4.2z"></path><path d="m65.7 91v-3.3l-.7.7-.4-.4 1.2-1.2h.6v4.2z"></path><path d="m67.9 88.8c0-1.1.5-2.2 1.7-2.2s1.7 1.1 1.7 2.2-.5 2.2-1.7 2.2-1.7-1.1-1.7-2.2zm2.7 0c0-.8-.2-1.5-1-1.5-.7 0-1 .7-1 1.5s.2 1.6 1 1.6c.7 0 1-.7 1-1.6z"></path><path d="m72.6 88.8c0-1.1.5-2.2 1.7-2.2s1.7 1.1 1.7 2.2-.5 2.2-1.7 2.2-1.7-1.1-1.7-2.2zm2.6 0c0-.8-.2-1.5-1-1.5-.7 0-1 .7-1 1.5s.2 1.6 1 1.6 1-.7 1-1.6z"></path><path d="m77.3 88.8c0-1.1.5-2.2 1.7-2.2s1.7 1.1 1.7 2.2-.5 2.2-1.7 2.2-1.7-1.1-1.7-2.2zm2.6 0c0-.8-.2-1.5-1-1.5-.7 0-1 .7-1 1.5s.2 1.6 1 1.6c.7 0 1-.7 1-1.6z"></path><path d="m82.9 91v-3.3l-.7.7-.4-.4 1.2-1.2h.6v4.2z"></path><path d="m86 91v-3.3l-.7.7-.4-.4 1.2-1.2h.6v4.2z"></path><path d="m90.6 88.8c0-1.1.5-2.2 1.7-2.2s1.7 1.1 1.7 2.2-.5 2.2-1.7 2.2-1.7-1.1-1.7-2.2zm2.6 0c0-.8-.2-1.5-1-1.5-.7 0-1 .7-1 1.5s.2 1.6 1 1.6 1-.7 1-1.6z"></path><path d="m96.2 91v-3.3l-.7.7-.4-.4 1.2-1.2h.7v4.2z"></path><path d="m49 123.5v-3.3l-.7.7-.4-.5 1.2-1.2h.6v4.3z"></path><path d="m52.1 123.5v-3.3l-.7.7-.4-.5 1.2-1.2h.6v4.3z"></path><path d="m56.6 121.3c0-1.1.5-2.2 1.7-2.2s1.7 1.1 1.7 2.2-.5 2.2-1.7 2.2-1.7-1.1-1.7-2.2zm2.7 0c0-.8-.2-1.5-1-1.5-.7 0-1 .7-1 1.5s.2 1.6 1 1.6 1-.8 1-1.6z"></path><path d="m62.3 123.5v-3.3l-.7.7-.4-.5 1.2-1.2h.6v4.3z"></path><path d="m65.4 123.5v-3.3l-.7.7-.4-.5 1.2-1.2h.6v4.3z"></path><path d="m67.6 121.3c0-1.1.5-2.2 1.7-2.2s1.7 1.1 1.7 2.2-.5 2.2-1.7 2.2-1.7-1.1-1.7-2.2zm2.7 0c0-.8-.2-1.5-1-1.5-.7 0-1 .7-1 1.5s.2 1.6 1 1.6c.7 0 1-.8 1-1.6z"></path><path d="m54.4 56.3c0-1.1.5-2.2 1.7-2.2s1.7 1.1 1.7 2.2-.5 2.2-1.7 2.2-1.7-1.1-1.7-2.2zm2.7 0c0-.8-.2-1.5-1-1.5-.7 0-1 .7-1 1.5s.2 1.6 1 1.6 1-.8 1-1.6z"></path><path d="m60.1 58.5v-3.3l-.7.7-.4-.4 1.2-1.2h.6v4.3z"></path><path d="m63.2 58.5v-3.3l-.7.7-.4-.5 1.2-1.2h.7v4.3z"></path><path d="m65.4 56.3c0-1.1.5-2.2 1.7-2.2s1.7 1.1 1.7 2.2-.5 2.2-1.7 2.2c-1.2.1-1.7-1.1-1.7-2.2zm2.7 0c0-.8-.2-1.5-1-1.5s-1 .7-1 1.5.2 1.6 1 1.6 1-.8 1-1.6z"></path><path d="m71.1 58.5v-3.3l-.7.7-.4-.4 1.2-1.2h.6v4.3z"></path><path d="m73.3 56.3c0-1.1.5-2.2 1.7-2.2s1.7 1.1 1.7 2.2-.5 2.2-1.7 2.2-1.7-1.1-1.7-2.2zm2.6 0c0-.8-.2-1.5-1-1.5-.7 0-1 .7-1 1.5s.2 1.6 1 1.6 1-.8 1-1.6z"></path><path d="m77.9 56.3c0-1.1.5-2.2 1.7-2.2s1.7 1.1 1.7 2.2-.5 2.2-1.7 2.2c-1.2.1-1.7-1.1-1.7-2.2zm2.7 0c0-.8-.2-1.5-1-1.5-.7 0-1 .7-1 1.5s.2 1.6 1 1.6c.7 0 1-.8 1-1.6z"></path><path d="m83.6 58.5v-3.3l-.7.7-.4-.5 1.2-1.2h.6v4.3z"></path><path d="m44.7 97.4v-3.3l-.7.7-.4-.5 1.2-1.2h.6v4.3z"></path><path d="m46.9 95.3c0-1.1.5-2.2 1.7-2.2s1.7 1.1 1.7 2.2-.5 2.2-1.7 2.2-1.7-1.1-1.7-2.2zm2.7 0c0-.8-.2-1.5-1-1.5-.7 0-1 .7-1 1.5s.2 1.6 1 1.6 1-.8 1-1.6z"></path><path d="m52.6 97.4v-3.3l-.7.7-.4-.5 1.2-1.2h.6v4.3z"></path><path d="m54.8 95.3c0-1.1.5-2.2 1.7-2.2s1.7 1.1 1.7 2.2-.5 2.2-1.7 2.2-1.7-1.1-1.7-2.2zm2.6 0c0-.8-.2-1.5-1-1.5-.7 0-1 .7-1 1.5s.2 1.6 1 1.6c.7-.1 1-.8 1-1.6z"></path><path d="m59.4 95.3c0-1.1.5-2.2 1.7-2.2s1.7 1.1 1.7 2.2-.5 2.2-1.7 2.2-1.7-1.1-1.7-2.2zm2.7 0c0-.8-.2-1.5-1-1.5-.7 0-1 .7-1 1.5s.2 1.6 1 1.6c.7-.1 1-.8 1-1.6z"></path><path d="m65.1 97.4v-3.3l-.7.7-.4-.4 1.2-1.2h.6v4.3z"></path><path d="m69.6 95.3c0-1.1.5-2.2 1.7-2.2s1.7 1.1 1.7 2.2-.5 2.2-1.7 2.2c-1.1 0-1.7-1.1-1.7-2.2zm2.7 0c0-.8-.2-1.5-1-1.5s-1 .7-1 1.5.2 1.6 1 1.6 1-.8 1-1.6z"></path><path d="m75.2 97.4v-3.3l-.7.7-.4-.5 1.2-1.2h.7v4.3z"></path><path d="m78.4 97.4v-3.3l-.7.7-.4-.5 1.2-1.2h.6v4.3z"></path><path d="m81.6 97.4v-3.3l-.7.7-.4-.5 1.2-1.2h.6v4.3z"></path><path d="m83.8 95.3c0-1.1.5-2.2 1.7-2.2s1.7 1.1 1.7 2.2-.5 2.2-1.7 2.2-1.7-1.1-1.7-2.2zm2.6 0c0-.8-.2-1.5-1-1.5-.7 0-1 .7-1 1.5s.2 1.6 1 1.6c.8-.1 1-.8 1-1.6z"></path><path d="m89.4 97.4v-3.3l-.7.7-.4-.5 1.2-1.2h.6v4.3z"></path><path d="m91.6 95.3c0-1.1.5-2.2 1.7-2.2s1.7 1.1 1.7 2.2-.5 2.2-1.7 2.2-1.7-1.1-1.7-2.2zm2.6 0c0-.8-.2-1.5-1-1.5-.7 0-1 .7-1 1.5s.2 1.6 1 1.6c.8-.1 1-.8 1-1.6z"></path><path d="m48.3 101.8c0-1.1.5-2.2 1.7-2.2s1.7 1.1 1.7 2.2-.5 2.2-1.7 2.2-1.7-1.1-1.7-2.2zm2.7 0c0-.8-.2-1.5-1-1.5-.7 0-1 .7-1 1.5s.2 1.6 1 1.6c.7 0 1-.8 1-1.6z"></path><path d="m53.9 103.9v-3.3l-.7.7-.4-.5 1.2-1.2h.6v4.3z"></path><path d="m56.1 101.8c0-1.1.5-2.2 1.7-2.2s1.7 1.1 1.7 2.2-.5 2.2-1.7 2.2-1.7-1.1-1.7-2.2zm2.7 0c0-.8-.2-1.5-1-1.5-.7 0-1 .7-1 1.5s.2 1.6 1 1.6c.7 0 1-.8 1-1.6z"></path><path d="m61.8 103.9v-3.3l-.7.7-.4-.5 1.2-1.2h.6v4.3z"></path><path d="m64 101.8c0-1.1.5-2.2 1.7-2.2s1.7 1.1 1.7 2.2-.5 2.2-1.7 2.2-1.7-1.1-1.7-2.2zm2.6 0c0-.8-.2-1.5-1-1.5-.7 0-1 .7-1 1.5s.2 1.6 1 1.6 1-.8 1-1.6z"></path><path d="m69.6 103.9v-3.3l-.7.7-.4-.5 1.2-1.2h.6v4.3z"></path><path d="m72.8 103.9v-3.3l-.7.7-.4-.5 1.2-1.2h.6v4.3z"></path><path d="m74.9 101.8c0-1.1.5-2.2 1.7-2.2s1.7 1.1 1.7 2.2-.5 2.2-1.7 2.2c-1.1 0-1.7-1.1-1.7-2.2zm2.7 0c0-.8-.2-1.5-1-1.5-.7 0-1 .7-1 1.5s.2 1.6 1 1.6c.7 0 1-.8 1-1.6z"></path><path d="m82 101.8c0-1.1.5-2.2 1.7-2.2s1.7 1.1 1.7 2.2-.5 2.2-1.7 2.2-1.7-1.1-1.7-2.2zm2.6 0c0-.8-.2-1.5-1-1.5s-1 .7-1 1.5.2 1.6 1 1.6 1-.8 1-1.6z"></path><path d="m87.6 103.9v-3.3l-.7.7-.4-.5 1.2-1.2h.6v4.3z"></path><path d="m90.8 103.9v-3.3l-.7.7-.4-.5 1.2-1.2h.6v4.3z"></path><path d="m43.6 101.8c0-1.1.5-2.2 1.7-2.2s1.7 1.1 1.7 2.2-.5 2.2-1.7 2.2-1.7-1.1-1.7-2.2zm2.7 0c0-.8-.2-1.5-1-1.5-.7 0-1 .7-1 1.5s.2 1.6 1 1.6 1-.8 1-1.6z"></path><path d="m56.6 62.8c0-1.1.5-2.2 1.7-2.2s1.7 1.1 1.7 2.2-.5 2.2-1.7 2.2-1.7-1.1-1.7-2.2zm2.6 0c0-.8-.2-1.5-1-1.5-.7 0-1 .7-1 1.5s.2 1.6 1 1.6c.8-.1 1-.8 1-1.6z"></path><path d="m62.2 64.9v-3.3l-.7.7-.4-.5 1.2-1.2h.7v4.3z"></path><path d="m65.3 64.9v-3.3l-.7.7-.4-.5 1.2-1.2h.6v4.3z"></path><path d="m68.5 64.9v-3.3l-.7.7-.4-.5 1.2-1.2h.6v4.3z"></path><path d="m70.7 62.8c0-1.1.5-2.2 1.7-2.2s1.7 1.1 1.7 2.2-.5 2.2-1.7 2.2-1.7-1.1-1.7-2.2zm2.7 0c0-.8-.2-1.5-1-1.5s-1 .7-1 1.5.2 1.6 1 1.6 1-.8 1-1.6z"></path><path d="m76.3 64.9v-3.3l-.7.7-.4-.5 1.2-1.2h.6v4.3z"></path><path d="m78.5 62.8c0-1.1.5-2.2 1.7-2.2s1.7 1.1 1.7 2.2-.5 2.2-1.7 2.2-1.7-1.1-1.7-2.2zm2.7 0c0-.8-.2-1.5-1-1.5-.7 0-1 .7-1 1.5s.2 1.6 1 1.6c.7-.1 1-.8 1-1.6z"></path><path d="m83.2 62.8c0-1.1.5-2.2 1.7-2.2s1.7 1.1 1.7 2.2-.5 2.2-1.7 2.2-1.7-1.1-1.7-2.2zm2.7 0c0-.8-.2-1.5-1-1.5-.7 0-1 .7-1 1.5s.2 1.6 1 1.6c.7-.1 1-.8 1-1.6z"></path></g></svg>