<svg width="104" height="207" viewBox="0 0 104 207" fill="none" xmlns="http://www.w3.org/2000/svg">
<g clip-path="url(#clip0_50_10)">
<circle cx="2.5" cy="2.5" r="2.5" fill="#434343"/>
<circle cx="2.5" cy="30.5" r="2.5" fill="#434343"/>
<circle cx="2.5" cy="58.5" r="2.5" fill="#434343"/>
<circle cx="2.5" cy="86.5" r="2.5" fill="#434343"/>
<circle cx="2.5" cy="114.5" r="2.5" fill="#434343"/>
<circle cx="2.5" cy="142.5" r="2.5" fill="#434343"/>
<circle cx="2.5" cy="170.5" r="2.5" fill="#434343"/>
<circle cx="2.5" cy="16.5" r="2.5" fill="#434343"/>
<circle cx="2.5" cy="44.5" r="2.5" fill="#434343"/>
<circle cx="2.5" cy="72.5" r="2.5" fill="#434343"/>
<circle cx="2.5" cy="100.5" r="2.5" fill="#434343"/>
<circle cx="2.5" cy="128.5" r="2.5" fill="#434343"/>
<circle cx="2.5" cy="156.5" r="2.5" fill="#434343"/>
<circle cx="2.5" cy="184.5" r="2.5" fill="#434343"/>
<circle cx="44.5" cy="2.5" r="2.5" fill="#434343"/>
<circle cx="44.5" cy="30.5" r="2.5" fill="#434343"/>
<circle cx="44.5" cy="58.5" r="2.5" fill="#434343"/>
<circle cx="44.5" cy="86.5" r="2.5" fill="#434343"/>
<circle cx="44.5" cy="114.5" r="2.5" fill="#434343"/>
<circle cx="44.5" cy="142.5" r="2.5" fill="#434343"/>
<circle cx="44.5" cy="170.5" r="2.5" fill="#434343"/>
<circle cx="44.5" cy="16.5" r="2.5" fill="#434343"/>
<circle cx="44.5" cy="44.5" r="2.5" fill="#434343"/>
<circle cx="44.5" cy="72.5" r="2.5" fill="#434343"/>
<circle cx="44.5" cy="100.5" r="2.5" fill="#434343"/>
<circle cx="44.5" cy="128.5" r="2.5" fill="#434343"/>
<circle cx="44.5" cy="156.5" r="2.5" fill="#434343"/>
<circle cx="44.5" cy="184.5" r="2.5" fill="#434343"/>
<circle cx="87.5" cy="2.5" r="2.5" fill="#434343"/>
<circle cx="87.5" cy="30.5" r="2.5" fill="#434343"/>
<circle cx="87.5" cy="58.5" r="2.5" fill="#434343"/>
<circle cx="87.5" cy="86.5" r="2.5" fill="#434343"/>
<circle cx="87.5" cy="114.5" r="2.5" fill="#434343"/>
<circle cx="87.5" cy="142.5" r="2.5" fill="#434343"/>
<circle cx="87.5" cy="170.5" r="2.5" fill="#434343"/>
<circle cx="87.5" cy="16.5" r="2.5" fill="#434343"/>
<circle cx="87.5" cy="44.5" r="2.5" fill="#434343"/>
<circle cx="87.5" cy="72.5" r="2.5" fill="#434343"/>
<circle cx="87.5" cy="100.5" r="2.5" fill="#434343"/>
<circle cx="87.5" cy="128.5" r="2.5" fill="#434343"/>
<circle cx="87.5" cy="156.5" r="2.5" fill="#434343"/>
<circle cx="87.5" cy="184.5" r="2.5" fill="#434343"/>
<circle cx="16.5" cy="2.5" r="2.5" fill="#434343"/>
<circle cx="16.5" cy="30.5" r="2.5" fill="#434343"/>
<circle cx="16.5" cy="58.5" r="2.5" fill="#434343"/>
<circle cx="16.5" cy="86.5" r="2.5" fill="#434343"/>
<circle cx="16.5" cy="114.5" r="2.5" fill="#434343"/>
<circle cx="16.5" cy="142.5" r="2.5" fill="#434343"/>
<circle cx="16.5" cy="170.5" r="2.5" fill="#434343"/>
<circle cx="16.5" cy="16.5" r="2.5" fill="#434343"/>
<circle cx="16.5" cy="44.5" r="2.5" fill="#434343"/>
<circle cx="16.5" cy="72.5" r="2.5" fill="#434343"/>
<circle cx="16.5" cy="100.5" r="2.5" fill="#434343"/>
<circle cx="16.5" cy="128.5" r="2.5" fill="#434343"/>
<circle cx="16.5" cy="156.5" r="2.5" fill="#434343"/>
<circle cx="16.5" cy="184.5" r="2.5" fill="#434343"/>
<circle cx="59.5" cy="2.5" r="2.5" fill="#434343"/>
<circle cx="59.5" cy="30.5" r="2.5" fill="#434343"/>
<circle cx="59.5" cy="58.5" r="2.5" fill="#434343"/>
<circle cx="59.5" cy="86.5" r="2.5" fill="#434343"/>
<circle cx="59.5" cy="114.5" r="2.5" fill="#434343"/>
<circle cx="59.5" cy="142.5" r="2.5" fill="#434343"/>
<circle cx="59.5" cy="170.5" r="2.5" fill="#434343"/>
<circle cx="59.5" cy="16.5" r="2.5" fill="#434343"/>
<circle cx="59.5" cy="44.5" r="2.5" fill="#434343"/>
<circle cx="59.5" cy="72.5" r="2.5" fill="#434343"/>
<circle cx="59.5" cy="100.5" r="2.5" fill="#434343"/>
<circle cx="59.5" cy="128.5" r="2.5" fill="#434343"/>
<circle cx="59.5" cy="156.5" r="2.5" fill="#434343"/>
<circle cx="59.5" cy="184.5" r="2.5" fill="#434343"/>
<circle cx="102.5" cy="2.5" r="2.5" fill="#434343"/>
<circle cx="102.5" cy="30.5" r="2.5" fill="#434343"/>
<circle cx="102.5" cy="58.5" r="2.5" fill="#434343"/>
<circle cx="102.5" cy="86.5" r="2.5" fill="#434343"/>
<circle cx="102.5" cy="114.5" r="2.5" fill="#434343"/>
<circle cx="102.5" cy="142.5" r="2.5" fill="#434343"/>
<circle cx="102.5" cy="170.5" r="2.5" fill="#434343"/>
<circle cx="102.5" cy="16.5" r="2.5" fill="#434343"/>
<circle cx="102.5" cy="44.5" r="2.5" fill="#434343"/>
<circle cx="102.5" cy="72.5" r="2.5" fill="#434343"/>
<circle cx="102.5" cy="100.5" r="2.5" fill="#434343"/>
<circle cx="102.5" cy="128.5" r="2.5" fill="#434343"/>
<circle cx="102.5" cy="156.5" r="2.5" fill="#434343"/>
<circle cx="102.5" cy="184.5" r="2.5" fill="#434343"/>
<circle cx="30.5" cy="2.5" r="2.5" fill="#434343"/>
<circle cx="30.5" cy="30.5" r="2.5" fill="#434343"/>
<circle cx="30.5" cy="58.5" r="2.5" fill="#434343"/>
<circle cx="30.5" cy="86.5" r="2.5" fill="#434343"/>
<circle cx="30.5" cy="114.5" r="2.5" fill="#434343"/>
<circle cx="30.5" cy="142.5" r="2.5" fill="#434343"/>
<circle cx="30.5" cy="170.5" r="2.5" fill="#434343"/>
<circle cx="30.5" cy="16.5" r="2.5" fill="#434343"/>
<circle cx="30.5" cy="44.5" r="2.5" fill="#434343"/>
<circle cx="30.5" cy="72.5" r="2.5" fill="#434343"/>
<circle cx="30.5" cy="100.5" r="2.5" fill="#434343"/>
<circle cx="30.5" cy="128.5" r="2.5" fill="#434343"/>
<circle cx="30.5" cy="156.5" r="2.5" fill="#434343"/>
<circle cx="30.5" cy="184.5" r="2.5" fill="#434343"/>
<circle cx="73.5" cy="2.5" r="2.5" fill="#434343"/>
<circle cx="73.5" cy="30.5" r="2.5" fill="#434343"/>
<circle cx="73.5" cy="58.5" r="2.5" fill="#434343"/>
<circle cx="73.5" cy="86.5" r="2.5" fill="#434343"/>
<circle cx="73.5" cy="114.5" r="2.5" fill="#434343"/>
<circle cx="73.5" cy="142.5" r="2.5" fill="#434343"/>
<circle cx="73.5" cy="170.5" r="2.5" fill="#434343"/>
<circle cx="73.5" cy="16.5" r="2.5" fill="#434343"/>
<circle cx="73.5" cy="44.5" r="2.5" fill="#434343"/>
<circle cx="73.5" cy="72.5" r="2.5" fill="#434343"/>
<circle cx="73.5" cy="100.5" r="2.5" fill="#434343"/>
<circle cx="73.5" cy="128.5" r="2.5" fill="#434343"/>
<circle cx="73.5" cy="156.5" r="2.5" fill="#434343"/>
<circle cx="73.5" cy="184.5" r="2.5" fill="#434343"/>
</g>
<defs>
<clipPath id="clip0_50_10">
<rect width="105" height="207" fill="white"/>
</clipPath>
</defs>
</svg>
