<svg xmlns="http://www.w3.org/2000/svg" viewBox="0 0 129 32" fill="#fff"><path d="M128.131 24.722c0 .33-.251.592-.676.658-1.065.163-1.777.261-2.809.261-3.909 0-5.97-.952-5.97-5.606v-9.512l-2.845-.426c-.388-.065-.744-.33-.744-.69V7.242c0-.36.352-.687.744-.687h2.845V3.866c0-.36.32-.589.713-.654l4.338-.69h.105c.356 0 .64.229.64.556v3.48h2.914c.392 0 .712.295.712.654V9.87c0 .36-.323.654-.712.654h-2.914v9.545c0 1.311.109 1.54 1.173 1.54h1.741c.461 0 .745.197.745.556zm-22.368-21.02c0 .36-.356.658-.748.658h-3.343c-.389 0-.781-.298-.781-.657V.654c0-.36.388-.654.781-.654h3.343c.392 0 .748.294.748.654zm7.714 0c0 .36-.389.658-.781.658h-3.343c-.389 0-.745-.298-.745-.657V.654c0-.36.353-.654.745-.654h3.343c.389 0 .781.294.781.654zm-4.298 13.608h-2.028c-2.489 0-3.128.788-3.128 2.394V20c0 1.38.748 1.642 2.242 1.642 1.064 0 2.06-.33 2.914-.723zm5.65 7.38c0 .363-.32.657-.705.653h-3.983c-.392 0-.712-.294-.712-.654v-.523c-1.384.916-2.808 1.475-4.941 1.475-3.092 0-6.079-1.38-6.079-5.642v-.295c0-3.837 2.667-5.54 8.746-5.54h1.918v-1.182c0-1.87-.995-2.263-2.667-2.263-2.274 0-4.8.13-5.901.229h-.178c-.356 0-.64-.164-.64-.589V7.703c0-.36.248-.621.677-.72 1.311-.297 3.8-.69 6.148-.69 5.119 0 8.317 1.9 8.317 6.69zm-18.647 1.707c0 4.36-2.17 5.607-5.614 5.603-.927 0-1.813-.065-2.845-.229-.461-.065-.712-.294-.712-.654v-2.59c0-.36.287-.59.748-.59h1.563c.995 0 1.1-.424 1.1-1.54V7.245c0-.36.284-.687.676-.687h4.408c.392 0 .676.327.676.687zm.141-22.63c0 .36-.356.659-.744.655h-4.586c-.392 0-.712-.294-.712-.654V.719c0-.36.32-.654.712-.654h4.586c.388 0 .744.295.744.654zm-18.712-.064c0 .36-.356.657-.745.657h-3.343c-.392 0-.78-.298-.78-.657V.654c0-.36.388-.654.78-.654h3.343c.389 0 .745.294.745.654zm7.714 0c0 .36-.393.657-.781.657H81.2c-.393 0-.749-.298-.749-.657V.654c0-.36.356-.654.749-.654h3.343c.388 0 .78.294.78.654zm-4.299 17.215V17.31H79c-2.489 0-3.129.788-3.129 2.394V20c0 1.38.745 1.642 2.239 1.642 1.064 0 2.06-.33 2.914-.723zm5.647 3.771c0 .364-.32.658-.712.654h-3.983c-.392 0-.712-.294-.712-.654v-.523c-1.388.916-2.808 1.475-4.941 1.475-3.092 0-6.08-1.38-6.08-5.642v-.295c0-3.837 2.668-5.54 8.747-5.54h1.922v-1.182c0-1.87-.996-2.263-2.667-2.263-2.275 0-4.8.13-5.901.229h-.178c-.356 0-.64-.164-.64-.589V7.703c0-.36.251-.621.676-.72 1.32-.297 3.808-.69 6.152-.69 5.12 0 8.317 1.9 8.317 6.69zm-17.88.033c0 .33-.248.592-.673.658-1.068.163-1.776.261-2.808.261-3.91 0-5.974-.952-5.974-5.606v-9.512l-2.845-.426c-.389-.065-.745-.33-.745-.69V7.242c0-.36.353-.687.745-.687h2.845V3.866c0-.36.32-.589.712-.654l4.339-.69h.105c.356 0 .64.229.64.556v3.48h2.914c.392 0 .712.295.712.654V9.87c0 .36-.32.654-.712.654h-2.914v9.545c0 1.311.109 1.54 1.173 1.54h1.74c.462 0 .745.197.745.556zm-13.899 0c0 .33-.25.592-.668.658-1.068.163-1.777.261-2.809.261-3.913 0-5.973-.952-5.973-5.606v-9.512l-2.845-.426c-.393-.065-.749-.33-.749-.69V7.242c0-.36.356-.687.749-.687h2.845V3.866c0-.36.32-.589.712-.654l4.335-.69h.105c.356 0 .64.229.64.556v3.48h2.917c.393 0 .712.295.712.654V9.87c0 .36-.323.654-.712.654h-2.917v9.545c0 1.311.105 1.54 1.173 1.54h1.74c.462 0 .746.197.746.556zm-15.071-.033c0 .364-.32.658-.712.654h-4.339c-.392 0-.712-.294-.712-.654V7.212c0-.36.32-.654.712-.654h4.339c.392 0 .712.295.712.654zm.142-20.921c0 .36-.32.658-.713.654h-4.621c-.393 0-.713-.294-.713-.654V.719c0-.36.32-.654.713-.654h4.621c.393 0 .713.295.713.654zm-7.892 6.297c0 .294-.215.621-.538.621h-.284c-1.74 0-3.27.49-4.585 1.148v12.823c0 .363-.32.69-.712.69h-4.302c-.389 0-.745-.33-.745-.69V7.212c0-.36.32-.654.712-.654h4.23c.392 0 .712.295.712.654v.658c1.315-1.017 3.092-1.573 4.8-1.573.392 0 .712.294.712.654zM21.506 1.7L16.14 13.048c-.712 1.508-1.457 2.198-2.311 2.525v9.116c0 .36-.32.654-.712.654H8.459c-.39 0-.709-.294-.709-.654v-9.116c-.854-.33-1.635-1.017-2.347-2.525L.036 1.7C0 1.635 0 1.537 0 1.472 0 1.21.214.98.57.98h5.12c.356 0 .607.265.712.56l3.84 9.247c.179.425.288.49.535.49.25 0 .356-.065.534-.49l3.84-9.247c.11-.298.357-.56.713-.56h5.12c.352 0 .566.229.566.49 0 .066 0 .168-.044.23z"></path></svg>